<svg width="20" height="20" viewBox="0 0 20 20" fill="none" xmlns="http://www.w3.org/2000/svg">
<g clip-path="url(#clip0_2550_17934)">
<path d="M18.9733 7.27976L8.80906 17.3312C7.1249 18.9968 4.39409 18.9968 2.70994 17.3312C1.02578 15.6656 1.02578 12.9655 2.70994 11.2999L11.8583 2.2537C12.9813 1.14352 14.8011 1.14352 15.9242 2.2537C17.0472 3.36385 17.0472 5.16441 15.9242 6.27456L6.77578 15.3208C6.21463 15.8763 5.30436 15.8763 4.7425 15.3208C4.18135 14.7661 4.18135 13.8658 4.7425 13.3104L12.8742 5.26933L11.8576 4.26413L3.72659 12.3058C2.60358 13.416 2.60358 15.2166 3.72659 16.3267C4.8496 17.4369 6.66943 17.4369 7.79244 16.3267L16.9408 7.28048C18.625 5.61489 18.625 2.9148 16.9408 1.24919C15.2566 -0.416395 12.5258 -0.416395 10.8417 1.24919L1.18498 10.798L1.21998 10.833C-0.534166 13.0633 -0.379957 16.2874 1.69331 18.3371C3.76658 20.3868 7.02567 20.5403 9.28168 18.8047L9.31667 18.8397L19.9893 8.28567L18.9733 7.27976Z" fill="#292929"/>
</g>
<defs>
<clipPath id="clip0_2550_17934">
<rect width="20" height="20" fill="white"/>
</clipPath>
</defs>
</svg>
