<svg width="21" height="21" viewBox="0 0 21 21" fill="none" xmlns="http://www.w3.org/2000/svg">
<path fill-rule="evenodd" clip-rule="evenodd" d="M16.332 12.5833C14.2624 12.5833 12.582 14.2637 12.582 16.3333C12.582 18.4028 14.2624 20.0833 16.332 20.0833C18.4016 20.0833 20.082 18.4028 20.082 16.3333C20.082 14.2637 18.4016 12.5833 16.332 12.5833ZM16.332 13.4166C17.9416 13.4166 19.2487 14.7237 19.2487 16.3333C19.2487 17.9428 17.9416 19.2499 16.332 19.2499C14.7224 19.2499 13.4154 17.9428 13.4154 16.3333C13.4154 14.7237 14.7224 13.4166 16.332 13.4166Z" fill="black"/>
<path fill-rule="evenodd" clip-rule="evenodd" d="M14.7008 16.6313L15.5846 17.515C15.7472 17.6776 16.0111 17.6776 16.1738 17.515L17.9412 15.7475C18.1039 15.5849 18.1039 15.3209 17.9412 15.1583C17.7786 14.9957 17.5147 14.9957 17.3521 15.1583L15.8792 16.6313L15.29 16.0421C15.1274 15.8795 14.8634 15.8795 14.7008 16.0421C14.5382 16.2047 14.5382 16.4686 14.7008 16.6313Z" fill="black"/>
<path fill-rule="evenodd" clip-rule="evenodd" d="M8.83333 4.23657C8.28292 4.23657 7.755 4.45449 7.36458 4.8424L7.36 4.84699C6.96958 5.2374 6.75 5.76741 6.75 6.31991V7.15324C6.75 7.70574 6.96958 8.23574 7.36 8.62657C7.75083 9.01699 8.28083 9.23657 8.83333 9.23657C9.38583 9.23657 9.91583 9.01699 10.3067 8.62657C10.6971 8.23574 10.9167 7.70574 10.9167 7.15324V6.31991C10.9167 5.76741 10.6971 5.2374 10.3067 4.84699C9.91583 4.45615 9.38583 4.23657 8.83333 4.23657ZM8.83333 5.06991C8.50292 5.06991 8.18625 5.20074 7.95208 5.43324L7.94958 5.43615C7.715 5.67074 7.58333 5.98866 7.58333 6.31991V7.15324C7.58333 7.48366 7.71417 7.80032 7.94667 8.03448L7.94958 8.0374C8.18375 8.27157 8.50167 8.40324 8.83333 8.40324C9.165 8.40324 9.48292 8.27157 9.71708 8.0374C9.95167 7.80282 10.0833 7.48491 10.0833 7.15324V6.31991C10.0833 5.98866 9.95167 5.67074 9.71708 5.43615C9.48292 5.20157 9.165 5.06991 8.83333 5.06991Z" fill="black"/>
<path fill-rule="evenodd" clip-rule="evenodd" d="M12.582 12.1666C12.582 11.6141 12.3624 11.0841 11.972 10.6933C11.5812 10.3028 11.0512 10.0833 10.4987 10.0833H7.16536C6.61286 10.0833 6.08286 10.3028 5.69203 10.6933C5.30161 11.0841 5.08203 11.6141 5.08203 12.1666C5.08203 12.3966 5.2687 12.5833 5.4987 12.5833C5.7287 12.5833 5.91536 12.3966 5.91536 12.1666C5.91536 11.8349 6.04703 11.517 6.28162 11.2828C6.51578 11.0483 6.8337 10.9166 7.16536 10.9166H10.4987C10.8304 10.9166 11.1483 11.0483 11.3824 11.2828C11.617 11.517 11.7487 11.8349 11.7487 12.1666C11.7487 12.3966 11.9354 12.5833 12.1654 12.5833C12.3954 12.5833 12.582 12.3966 12.582 12.1666Z" fill="black"/>
<path fill-rule="evenodd" clip-rule="evenodd" d="M11.3881 17.7087C10.3223 18.4875 9.36893 19.0033 8.92102 19.23C8.86643 19.2558 8.8031 19.2567 8.7481 19.2321C7.92893 18.8175 5.55977 17.5075 3.79393 15.4446C2.6456 14.1029 1.74935 12.4388 1.74935 10.4867V7.16667C1.74935 6.93667 1.56268 6.75 1.33268 6.75C1.10268 6.75 0.916016 6.93667 0.916016 7.16667V10.4867C0.916016 12.6488 1.88893 14.5004 3.16102 15.9867C5.02268 18.1617 7.51935 19.545 8.3731 19.9762C8.37518 19.9775 8.37768 19.9788 8.37977 19.98C8.66602 20.1179 9.00018 20.1179 9.28643 19.9792C9.28852 19.9783 9.2906 19.9771 9.29268 19.9762C9.75977 19.74 10.7606 19.1996 11.8798 18.3812C12.0652 18.2458 12.106 17.9846 11.9702 17.7992C11.8343 17.6133 11.5735 17.5729 11.3881 17.7087Z" fill="black"/>
<path fill-rule="evenodd" clip-rule="evenodd" d="M1.74935 5.49992V4.427C1.74935 4.31492 1.8381 4.22325 1.94977 4.21908C1.95185 4.21866 1.95352 4.21867 1.9556 4.21867C4.06227 4.11117 6.3481 3.43158 8.71477 1.75491C8.78643 1.70408 8.88185 1.70408 8.9531 1.7545H8.95393C11.3018 3.39908 13.6135 4.1045 15.7089 4.2195C15.7114 4.2195 15.7135 4.21991 15.7156 4.21991C15.8264 4.22408 15.9139 4.31492 15.9139 4.42575V4.42658C15.916 6.06908 15.916 10.4866 15.916 10.4866C15.916 10.757 15.8989 11.022 15.866 11.2816C15.8373 11.5095 15.9994 11.7182 16.2277 11.747C16.4556 11.7757 16.6643 11.6137 16.6931 11.3858C16.7298 11.0924 16.7493 10.7928 16.7493 10.4866C16.7493 10.4866 16.7494 6.06867 16.7473 4.42534C16.7473 3.8695 16.3089 3.412 15.7539 3.38741C13.7914 3.2795 11.6302 2.61158 9.43185 1.072C9.07227 0.819501 8.59226 0.820335 8.2331 1.07492C6.01935 2.64325 3.88393 3.28575 1.9131 3.38658C1.35643 3.41033 0.916016 3.86866 0.916016 4.42658V5.49992C0.916016 5.72992 1.10268 5.91658 1.33268 5.91658C1.56268 5.91658 1.74935 5.72992 1.74935 5.49992Z" fill="black"/>
</svg>
