<svg width="47" height="40" viewBox="0 0 47 40" fill="none" xmlns="http://www.w3.org/2000/svg">
<g clip-path="url(#clip0_2550_14537)">
<path d="M16.9596 30.8056C15.913 30.8109 14.8664 30.817 13.8198 30.8206C12.232 30.8259 11.0614 31.4867 10.391 32.992C9.98863 33.8957 9.25366 34.159 8.52392 33.7191C8.04907 33.4328 7.81688 32.9964 7.96265 32.4514C8.47853 30.5238 9.66305 29.2092 11.5581 28.5917C12.1543 28.3974 12.7714 28.3161 13.4034 28.3188C15.4975 28.3294 17.5915 28.3258 19.6847 28.3214C22.2432 28.3161 24.8007 28.302 27.3592 28.2949C31.8223 28.2825 36.2854 28.2719 40.7485 28.2613C41.4302 28.2596 41.7357 28.0688 41.8483 27.5634C42.0011 26.877 41.6851 26.4309 40.9938 26.3797C38.0966 26.1685 35.1986 25.9689 32.3024 25.7516C29.0159 25.5051 25.7304 25.2392 22.4439 24.9909C19.8514 24.7957 17.2572 24.6208 14.6638 24.4264C13.8555 24.3655 13.0403 24.331 12.2782 23.9883C11.215 23.5103 10.5368 22.6773 10.1571 21.5951C8.95862 18.1772 7.768 14.7575 6.60443 11.3272C6.46651 10.9208 6.38795 10.7654 5.90263 10.8281C3.65755 11.117 4.13409 10.0187 3.00195 8.00012C1.96234 6.14672 3.76509 6.72631 5.00198 5.00012C6.29386 3.19885 4.14026 0.402946 6.25266 0.905607C8.28213 1.38883 9.52775 2.76166 9.99038 4.83767C10.0716 5.20164 10.0855 5.56649 10.0689 5.9331C10.0576 6.17427 10.1213 6.29354 10.3806 6.26438C10.5246 6.24848 10.6712 6.26173 10.8161 6.26173C18.5369 6.26527 26.2585 6.26968 33.9792 6.27233C35.3313 6.27233 36.6834 6.26615 38.0355 6.26085C38.8918 6.25732 39.2916 5.89335 39.3807 5.03556C39.461 4.25992 39.5963 3.49665 39.7953 2.74222C40.2501 1.01868 41.1736 0.234214 42.9281 0.0672494C43.9878 -0.0334595 45.044 -0.00960739 46.1019 0.0637158C46.5838 0.0972854 46.9102 0.410897 46.9774 0.891473C47.0769 1.59997 46.8631 2.09645 46.3682 2.30935C46.0382 2.45158 45.6882 2.45246 45.3399 2.45511C44.7149 2.46041 44.0899 2.44009 43.4684 2.52932C42.6662 2.64593 42.2848 2.98074 42.0901 3.78288C41.8605 4.72636 41.7951 5.69812 41.6668 6.6575C41.2198 10.0056 40.7895 13.3555 40.3653 16.7072C40.1148 18.6878 39.8834 20.6719 39.6495 22.6543C39.5552 23.4503 39.7743 23.7259 40.5826 23.7983C41.0461 23.8399 41.507 23.8814 41.96 23.9953C43.6273 24.415 44.7306 26.0378 44.5377 27.7905C44.3631 29.3833 42.8888 30.7782 41.2582 30.787C35.8062 30.8153 30.3532 30.8091 24.9011 30.8153C24.8723 30.8153 24.8435 30.8056 24.8156 30.8011C24.7108 30.7252 24.5912 30.7561 24.4778 30.7561C22.0843 30.7543 19.6908 30.7543 17.2965 30.7561C17.1839 30.7561 17.0634 30.7225 16.9604 30.8047L16.9596 30.8056Z" fill="#111111"/>
<path d="M19.865 40.0001C17.7561 39.993 16.1002 38.3181 16.1055 36.1961C16.1107 34.1139 17.7902 32.4514 19.8816 32.4575C21.9931 32.4637 23.601 34.1184 23.5713 36.2536C23.5416 38.3817 21.9347 40.0072 19.8642 40.0001H19.865Z" fill="#111111"/>
<path d="M33.037 36.1802C33.0335 38.3657 31.4387 40.0054 29.322 40.0009C27.2253 39.9965 25.5764 38.341 25.5781 36.2429C25.5807 34.1227 27.2454 32.4531 29.3516 32.4592C31.3925 32.4645 33.0405 34.1289 33.037 36.1811V36.1802Z" fill="#111111"/>
<path d="M16.9579 30.8055C17.0688 30.6659 17.2241 30.7145 17.3629 30.7145C19.7101 30.7118 22.0582 30.7118 24.4054 30.7145C24.5442 30.7145 24.6996 30.6659 24.8122 30.8019C24.3207 30.8117 23.8302 30.832 23.3387 30.8302C21.2115 30.8249 19.0843 30.8143 16.957 30.8046L16.9579 30.8055Z" fill="#111111"/>
<mask id="mask0_2550_14537" style="mask-type:luminance" maskUnits="userSpaceOnUse" x="4" y="-1" width="43" height="35">
<path d="M16.9572 30.7702C15.9106 30.7755 14.864 30.7816 13.8175 30.7852C12.2297 30.7905 11.0591 31.4513 10.3887 32.9566C9.98633 33.8603 9.25135 34.1236 8.52161 33.6837C8.04676 33.3974 7.81457 32.961 7.96034 32.416C8.47622 30.4883 9.66074 29.1738 11.5558 28.5563C12.152 28.362 12.7691 28.2807 13.4011 28.2834C15.4951 28.294 17.5892 28.2904 19.6824 28.286C22.2409 28.2807 24.7984 28.2666 27.3569 28.2595C31.82 28.2471 36.2831 28.2365 40.7462 28.2259C41.4279 28.2242 41.7334 28.0333 41.846 27.528C41.9988 26.8416 41.6828 26.3955 40.9914 26.3443C38.0943 26.1331 35.1963 25.9335 32.3001 25.7162C29.0136 25.4697 25.7281 25.2038 22.4416 24.9555C19.8491 24.7603 17.2549 24.5854 14.6615 24.391C13.8532 24.3301 13.038 24.2956 12.2759 23.9529C11.2127 23.4749 10.5345 22.6419 10.1548 21.5597C8.95631 18.1418 7.76569 14.7221 6.60212 11.2918C6.46421 10.8854 6.38565 10.73 5.90032 10.7927C3.65524 11.0816 6.63165 11.5187 5.49951 9.50006C4.46164 7.64755 4.66367 7.62389 5.90056 5.8977C7.19157 4.09554 4.88711 1.4974 6.99951 2.00006C9.02899 2.48329 9.52544 2.72625 9.98807 4.80227C10.0693 5.16624 10.0832 5.53109 10.0666 5.8977C10.0553 6.13887 10.119 6.25813 10.3783 6.22898C10.5223 6.21308 10.6689 6.22633 10.8138 6.22633C18.5346 6.22987 26.2562 6.23428 33.9769 6.23693C35.329 6.23693 36.6811 6.23075 38.0332 6.22545C38.8895 6.22191 39.2893 5.85795 39.3783 5.00016C39.4587 4.22452 39.5939 3.46125 39.793 2.70682C40.2477 0.983283 41.1713 0.198814 42.9258 0.031849C43.9855 -0.0688599 45.0417 -0.0450078 46.0996 0.0283154C46.5815 0.061885 46.9079 0.375496 46.9751 0.856072C47.0746 1.56457 46.8608 2.06105 46.3658 2.27395C46.0359 2.41618 45.6859 2.41706 45.3376 2.41971C44.7126 2.42501 44.0876 2.40469 43.4661 2.49392C42.6639 2.61053 42.2825 2.94534 42.0878 3.74748C41.8582 4.69096 41.7928 5.66271 41.6644 6.6221C41.2175 9.97023 40.7872 13.3201 40.363 16.6718C40.1124 18.6524 39.8811 20.6365 39.6472 22.6189C39.5529 23.4149 39.772 23.6905 40.5803 23.7629C41.0438 23.8045 41.5047 23.846 41.9577 23.9599C43.625 24.3796 44.7283 26.0024 44.5354 27.7551C44.3608 29.3479 42.8865 30.7428 41.2559 30.7516C35.8039 30.7799 30.3509 30.7737 24.8988 30.7799C24.87 30.7799 24.8412 30.7702 24.8133 30.7657C24.7085 30.6898 24.5889 30.7207 24.4755 30.7207C22.082 30.7189 19.6885 30.7189 17.2942 30.7207C17.1816 30.7207 17.0611 30.6871 16.9581 30.7693L16.9572 30.7702Z" fill="white"/>
</mask>
<g mask="url(#mask0_2550_14537)">
<path d="M19.8345 8.70953C20.25 8.70953 20.5869 8.36859 20.5869 7.94802C20.5869 7.52746 20.25 7.18652 19.8345 7.18652C19.4189 7.18652 19.082 7.52746 19.082 7.94802C19.082 8.36859 19.4189 8.70953 19.8345 8.70953Z" fill="white"/>
<path d="M22.3735 8.70953C22.7891 8.70953 23.126 8.36859 23.126 7.94802C23.126 7.52746 22.7891 7.18652 22.3735 7.18652C21.958 7.18652 21.6211 7.52746 21.6211 7.94802C21.6211 8.36859 21.958 8.70953 22.3735 8.70953Z" fill="white"/>
<path d="M8.42188 7.42334H17.9608C18.2498 7.42334 18.4846 7.66098 18.4846 7.95339C18.4846 8.2458 18.2498 8.48343 17.9608 8.48343H8.42188V7.42334Z" fill="white"/>
<path d="M30.2933 23.1162C30.5825 23.1162 30.817 22.8789 30.817 22.5862C30.817 22.2935 30.5825 22.0562 30.2933 22.0562C30.004 22.0562 29.7695 22.2935 29.7695 22.5862C29.7695 22.8789 30.004 23.1162 30.2933 23.1162Z" fill="white"/>
<path d="M41.2031 23.1162H31.6642C31.3752 23.1162 31.1404 22.8786 31.1404 22.5862C31.1404 22.2938 31.3752 22.0561 31.6642 22.0561H41.2031V23.1162Z" fill="white"/>
<path d="M39.8594 21.4077H35.2095C34.9206 21.4077 34.6857 21.1701 34.6857 20.8777C34.6857 20.5853 34.9206 20.3476 35.2095 20.3476H39.8594V21.4077Z" fill="white"/>
<path d="M6.56641 9.16187H13.3304C13.6194 9.16187 13.8542 9.3995 13.8542 9.69191C13.8542 9.98432 13.6194 10.222 13.3304 10.222H6.56641V9.16187Z" fill="white"/>
<path d="M5.9375 12.1133H10.7471C11.0361 12.1133 11.2709 11.8757 11.2709 11.5833C11.2709 11.2909 11.0361 11.0532 10.7471 11.0532H5.9375V12.1133Z" fill="white"/>
</g>
<path d="M6.5 13C10.0899 13 13 10.0899 13 6.5C13 2.91015 10.0899 0 6.5 0C2.91015 0 0 2.91015 0 6.5C0 10.0899 2.91015 13 6.5 13Z" fill="#111111"/>
<path d="M10.4806 3.88345C10.1584 3.48368 9.70315 3.19778 9.18812 3.0717C8.67308 2.94561 8.12811 2.98666 7.64076 3.18823C7.20455 3.36597 6.81552 3.66565 6.5 4.06333C6.18448 3.66467 5.79545 3.365 5.35924 3.18823C4.87189 2.98666 4.32692 2.94561 3.81188 3.0717C3.29685 3.19778 2.84165 3.48368 2.51941 3.88345C2.17959 4.30388 2 4.82933 2 5.40281C2 6.22812 2.52126 7.13356 3.54915 8.095C4.38675 8.87811 5.37654 9.51946 5.89183 9.83197C6.07339 9.94169 6.28444 10 6.5 10C6.71556 10 6.92661 9.94169 7.10817 9.83197C7.62304 9.51946 8.61325 8.87811 9.45085 8.095C10.4787 7.13395 11 6.22812 11 5.40281C11 4.82933 10.8204 4.30388 10.4806 3.88345Z" fill="#F9595F"/>
<path d="M16.3042 15.7565C16.3042 14.9526 16.2955 14.1487 16.3059 13.3448C16.3182 12.4207 16.6891 11.9825 17.5865 11.812C17.7558 11.7794 17.9304 11.7652 18.1023 11.7617C19.8883 11.7193 20.0341 12.4808 20.0341 13.6442V14.5506C19.9206 14.5506 19.5749 14.5533 19.114 14.5533C18.7614 14.5533 18.5755 14.5489 18.4576 14.5489C18.4576 14.4623 18.4576 14.192 18.4576 13.8801C18.4576 13.646 18.4576 13.4128 18.4576 13.1787C18.4576 13.0153 18.4716 12.8324 18.235 12.8359C18.0072 12.8395 18.0124 13.0161 18.0124 13.1831C18.0133 14.192 18.0124 15.1999 18.0133 16.2088C18.0133 16.8669 18.0133 17.5242 18.0133 18.1823C18.0133 18.3608 17.9932 18.5675 18.2464 18.564C18.5144 18.5604 18.455 18.3352 18.4567 18.17C18.4611 17.7168 18.4576 16.5109 18.4576 16.45C18.5074 16.45 19.9861 16.45 20.0341 16.45C20.0341 16.5233 20.0314 17.8325 20.0341 18.374C20.0358 18.8131 19.8228 19.1479 19.451 19.352C18.6287 19.8052 17.7837 19.7778 16.9493 19.4067C16.4718 19.1947 16.3077 18.7583 16.3051 18.2557C16.3007 17.4226 16.3042 16.5895 16.3033 15.7565H16.3042Z" fill="white"/>
<path d="M26.9683 15.7565C26.9683 14.9526 26.9595 14.1487 26.97 13.3448C26.9822 12.4207 27.3532 11.9825 28.2505 11.812C28.4199 11.7794 28.5944 11.7652 28.7664 11.7617C30.5523 11.7193 30.6981 12.4808 30.6981 13.6442V14.5506C30.5846 14.5506 30.239 14.5533 29.7781 14.5533C29.4254 14.5533 29.2395 14.5489 29.1217 14.5489C29.1217 14.4623 29.1217 14.192 29.1217 13.8801C29.1217 13.646 29.1217 13.4128 29.1217 13.1787C29.1217 13.0153 29.1356 12.8324 28.8991 12.8359C28.6713 12.8395 28.6765 13.0161 28.6765 13.1831C28.6774 14.192 28.6765 15.1999 28.6774 16.2088C28.6774 16.8669 28.6774 17.5242 28.6774 18.1823C28.6774 18.3608 28.6573 18.5675 28.9104 18.564C29.1784 18.5604 29.1191 18.3352 29.1208 18.17C29.1252 17.7168 29.1217 16.5109 29.1217 16.45C29.1714 16.45 30.6501 16.45 30.6981 16.45C30.6981 16.5233 30.6955 17.8325 30.6981 18.374C30.6999 18.8131 30.4869 19.1479 30.115 19.352C29.2928 19.8052 28.4478 19.7778 27.6133 19.4067C27.1358 19.1947 26.9717 18.7583 26.9691 18.2557C26.9648 17.4226 26.9683 16.5895 26.9674 15.7565H26.9683Z" fill="white"/>
<path d="M23.3581 18.594C23.9796 18.594 24.8246 18.5878 25.392 18.5878C25.392 18.8405 25.4059 19.3723 25.4059 19.5967C24.2101 19.5887 22.7427 19.5905 21.5469 19.5967C21.5504 19.0463 21.5469 19.0799 21.5469 18.5454C22.0645 17.6028 22.851 16.1213 23.3791 15.1646C23.6872 14.6063 23.7631 14.0073 23.7405 13.3854C23.7326 13.1584 23.6575 12.9755 23.393 12.9764C23.112 12.9764 23.0779 13.1752 23.0805 13.3995C23.0832 13.707 23.0849 14.3218 23.0849 14.6257H21.5477C21.5477 14.23 21.5556 13.5365 21.5556 13.131C21.5556 12.5532 21.9659 12.0391 22.514 11.8783C23.1251 11.6999 23.7466 11.7034 24.362 11.8615C24.8595 11.9887 25.1554 12.3368 25.2663 12.828C25.4618 13.6973 25.5133 14.5391 25.035 15.3722C24.4492 16.3934 23.943 17.4615 23.359 18.5931L23.3581 18.594Z" fill="white"/>
</g>
<defs>
<clipPath id="clip0_2550_14537">
<rect width="47" height="40" fill="white"/>
</clipPath>
</defs>
</svg>
