<svg width="70" height="69" viewBox="0 0 70 69" fill="none" xmlns="http://www.w3.org/2000/svg">
<path fill-rule="evenodd" clip-rule="evenodd" d="M39.0933 64.2781C38.8583 63.7006 38.7083 63.0756 38.6533 62.423L36.6833 38.673C36.5358 36.903 37.1358 35.153 38.3408 33.8456C39.1433 32.973 40.1683 32.3505 41.2908 32.0331C41.8458 31.878 42.4258 31.7955 43.0133 31.7955H44.5683V27.6056C44.5683 23.0155 48.2883 19.2955 52.8783 19.2955H52.8858C57.4758 19.2955 61.1958 23.0155 61.1958 27.6056V31.7955H62.7508C64.5283 31.7955 66.2233 32.538 67.4258 33.8456C68.6283 35.153 69.2283 36.903 69.0833 38.673L67.1108 62.423C66.8383 65.718 64.0858 68.2531 60.7808 68.2531H44.9858C42.3333 68.2531 40.0383 66.6231 39.0933 64.2781ZM49.5683 31.7955H56.1958V27.6056C56.1958 25.778 54.7158 24.2955 52.8858 24.2955H52.8783C51.0508 24.2955 49.5683 25.778 49.5683 27.6056V31.7955ZM23.0658 0.935547C29.6833 0.935547 35.0558 6.30805 35.0558 12.9255C35.0558 19.5431 29.6833 24.9155 23.0658 24.9155C16.4483 24.9155 11.0758 19.5431 11.0758 12.9255C11.0758 6.30805 16.4483 0.935547 23.0658 0.935547ZM33.8833 64.2856C25.0883 64.2931 13.4533 64.2956 7.76834 64.2956C3.76584 64.2956 0.468338 61.1556 0.273338 57.1581C0.273338 57.1356 0.273338 57.1106 0.270838 57.0881C0.185838 52.9056 0.315838 46.4156 1.52084 39.1006C2.15834 35.2356 5.46584 30.3755 8.83584 28.323C8.97334 28.2405 9.10834 28.158 9.24334 28.078C10.1008 27.5655 11.1833 27.613 11.9933 28.203C15.1033 30.463 18.9308 31.7955 23.0658 31.7955C27.2008 31.7955 31.0283 30.463 34.1383 28.203C34.9433 27.618 36.0158 27.5681 36.8733 28.0705C37.0133 28.153 37.1533 28.238 37.2958 28.323L37.3108 28.333C36.3358 28.898 35.4408 29.613 34.6608 30.4605C32.5108 32.7955 31.4383 35.923 31.7008 39.0881L33.6708 62.8381C33.7108 63.3306 33.7833 63.8131 33.8833 64.2856Z" fill="black"/>
</svg>
