<svg width="18" height="20" viewBox="0 0 18 20" fill="none" xmlns="http://www.w3.org/2000/svg">
<path d="M14.0007 1.66675V3.33341M4.00065 1.66675V3.33341M8.9969 10.8334H9.0044M8.9969 14.1667H9.0044M12.3265 10.8334H12.334M5.66732 10.8334H5.67479M5.66732 14.1667H5.67479M1.91732 6.66675L16.084 6.66675M1.50065 6.66675L16.5007 6.66675M1.08398 10.2027C1.08398 6.5717 1.08398 4.75615 2.12742 3.62811C3.17085 2.50008 4.85023 2.50008 8.20898 2.50008H9.79232C13.1511 2.50008 14.8305 2.50008 15.8739 3.62811C16.9173 4.75615 16.9173 6.5717 16.9173 10.2027V10.6307C16.9173 14.2618 16.9173 16.0773 15.8739 17.2054C14.8305 18.3334 13.1511 18.3334 9.79232 18.3334H8.20898C4.85023 18.3334 3.17085 18.3334 2.12742 17.2054C1.08398 16.0773 1.08398 14.2618 1.08398 10.6307V10.2027Z" stroke="#414141" stroke-width="1.8" stroke-linecap="round" stroke-linejoin="round"/>
</svg>
