<svg width="24" height="25" viewBox="0 0 24 25" fill="none" xmlns="http://www.w3.org/2000/svg">
<path fill-rule="evenodd" clip-rule="evenodd" d="M2.99033 5.37254C3.30665 4.84878 5.0495 2.94376 6.29322 3.00127C6.665 3.03208 6.99364 3.25699 7.26067 3.51784C7.87379 4.11656 9.62897 6.38101 9.72859 6.85753C9.97096 8.02621 8.57833 8.6999 9.00454 9.87783C10.0911 12.5366 11.9634 14.4088 14.6233 15.4943C15.8003 15.9205 16.474 14.5279 17.6428 14.7713C18.1183 14.8709 20.3839 16.626 20.9826 17.2391C21.2425 17.5051 21.4684 17.8347 21.4992 18.2065C21.5454 19.5159 19.5222 21.2833 19.1278 21.5092C18.1974 22.1747 16.9834 22.1634 15.5035 21.4753C11.3739 19.7572 4.77426 13.2822 3.02422 8.99669C2.35461 7.52505 2.30839 6.30297 2.99033 5.37254Z" stroke="#FFCD05" stroke-width="1.5" stroke-linecap="round" stroke-linejoin="round"/>
</svg>
