<svg width="20" height="20" viewBox="0 0 20 20" fill="none" xmlns="http://www.w3.org/2000/svg">
<g clip-path="url(#clip0_8296_36877)">
<path d="M14.1667 5C16.1214 5 16.682 5 17.3553 5.51662C17.5286 5.64962 17.6838 5.80477 17.8168 5.9781C18.3334 6.65137 18.3334 7.62868 18.3334 9.58333V13.3333C18.3334 15.6903 18.3334 16.8688 17.6011 17.6011C16.8689 18.3333 15.6904 18.3333 13.3334 18.3333H6.66669C4.30966 18.3333 3.13115 18.3333 2.39892 17.6011C1.66669 16.8688 1.66669 15.6903 1.66669 13.3333V9.58333C1.66669 7.62868 1.66669 6.65137 2.1833 5.9781C2.3163 5.80477 2.47145 5.64962 2.64479 5.51662C3.31805 5 3.8787 5 5.83335 5" stroke="#414141" stroke-width="1.5" stroke-linecap="round" stroke-linejoin="round"/>
<path d="M14.1666 5.83341L13.4285 3.98794C13.11 3.19171 12.8328 2.2885 12.0138 1.88304C11.577 1.66675 11.0513 1.66675 9.99998 1.66675C8.94865 1.66675 8.42298 1.66675 7.9861 1.88304C7.16715 2.2885 6.88999 3.19171 6.5715 3.98794L5.83331 5.83341" stroke="#414141" stroke-width="1.5" stroke-linecap="round" stroke-linejoin="round"/>
<path d="M12.9166 11.6667C12.9166 13.2775 11.6108 14.5833 9.99998 14.5833C8.38915 14.5833 7.08331 13.2775 7.08331 11.6667C7.08331 10.0558 8.38915 8.75 9.99998 8.75C11.6108 8.75 12.9166 10.0558 12.9166 11.6667Z" stroke="#414141" stroke-width="1.5" stroke-linecap="round" stroke-linejoin="round"/>
<path d="M9.99982 5H10.0073" stroke="#414141" stroke-width="1.5" stroke-linecap="round" stroke-linejoin="round"/>
</g>
<defs>
<clipPath id="clip0_8296_36877">
<rect width="20" height="20" fill="white"/>
</clipPath>
</defs>
</svg>
