<svg width="24" height="24" viewBox="0 0 24 24" fill="none" xmlns="http://www.w3.org/2000/svg">
<g clip-path="url(#clip0_2550_32124)">
<path d="M8.6599 17.5572C8.12547 17.5599 7.59104 17.5631 7.0566 17.5649C6.24582 17.5677 5.64809 17.9075 5.30577 18.6817C5.10028 19.1464 4.72498 19.2818 4.35234 19.0556C4.10987 18.9084 3.9913 18.6839 4.06574 18.4036C4.32917 17.4123 4.93403 16.7362 5.90171 16.4187C6.20615 16.3187 6.52128 16.2769 6.84399 16.2783C7.9133 16.2837 8.98261 16.2819 10.0515 16.2796C11.3579 16.2769 12.6639 16.2697 13.9704 16.266C16.2494 16.2597 18.5284 16.2542 20.8074 16.2488C21.1556 16.2478 21.3116 16.1497 21.3691 15.8898C21.4471 15.5368 21.2857 15.3074 20.9327 15.281C19.4533 15.1725 17.9735 15.0698 16.4945 14.958C14.8164 14.8313 13.1386 14.6945 11.4604 14.5668C10.1366 14.4664 8.8119 14.3765 7.48763 14.2765C7.07488 14.2452 6.65856 14.2275 6.26944 14.0512C5.72654 13.8054 5.3802 13.377 5.18631 12.8204C4.57432 11.0626 3.96634 9.30393 3.37218 7.53978C3.30175 7.33079 3.26164 7.25083 3.01381 7.28309C1.86739 7.43165 0.938483 7.03093 0.360369 5.9928C-0.170498 5.03962 -0.112553 4.06282 0.519049 3.17507C1.17873 2.2487 2.11388 1.92158 3.19255 2.1801C4.22888 2.42861 4.86494 3.13464 5.10118 4.2023C5.14263 4.38948 5.14976 4.57712 5.14129 4.76567C5.1355 4.8897 5.16804 4.95103 5.30042 4.93604C5.37396 4.92786 5.44885 4.93467 5.52284 4.93467C9.46534 4.93649 13.4083 4.93876 17.3508 4.94013C18.0412 4.94013 18.7317 4.93695 19.4221 4.93422C19.8594 4.9324 20.0635 4.74522 20.109 4.30407C20.15 3.90517 20.2191 3.51263 20.3207 3.12464C20.5529 2.23825 21.0245 1.83481 21.9204 1.74894C22.4615 1.69715 23.0009 1.70941 23.5411 1.74712C23.7872 1.76439 23.9539 1.92567 23.9882 2.17283C24.039 2.5372 23.9298 2.79253 23.6771 2.90202C23.5086 2.97517 23.3298 2.97562 23.152 2.97698C22.8328 2.97971 22.5137 2.96926 22.1963 3.01515C21.7867 3.07512 21.5919 3.24731 21.4925 3.65984C21.3753 4.14506 21.3419 4.64481 21.2763 5.13821C21.0481 6.86011 20.8284 8.58291 20.6118 10.3066C20.4838 11.3252 20.3657 12.3456 20.2463 13.3651C20.1981 13.7745 20.31 13.9162 20.7227 13.9535C20.9594 13.9749 21.1948 13.9962 21.4261 14.0548C22.2775 14.2706 22.8409 15.1052 22.7424 16.0066C22.6532 16.8257 21.9004 17.5431 21.0677 17.5477C18.2837 17.5622 15.4992 17.559 12.7152 17.5622C12.7005 17.5622 12.6858 17.5572 12.6715 17.5549C12.618 17.5159 12.5569 17.5318 12.499 17.5318C11.2768 17.5309 10.0546 17.5309 8.83195 17.5318C8.77445 17.5318 8.71294 17.5145 8.66035 17.5568L8.6599 17.5572Z" fill="#B8B8B8"/>
<path d="M10.1424 22.2858C9.06554 22.2821 8.21999 21.4207 8.22266 20.3295C8.22534 19.2586 9.08293 18.4036 10.1509 18.4067C11.2291 18.4099 12.0502 19.2609 12.035 20.359C12.0199 21.4535 11.1993 22.2894 10.142 22.2858H10.1424Z" fill="#B8B8B8"/>
<path d="M16.8713 20.3213C16.8695 21.4453 16.0551 22.2886 14.9742 22.2863C13.9036 22.284 13.0616 21.4326 13.0625 20.3536C13.0638 19.2632 13.9138 18.4045 14.9894 18.4077C16.0315 18.4104 16.8731 19.2664 16.8713 20.3218V20.3213Z" fill="#B8B8B8"/>
<path d="M8.6606 17.557C8.71721 17.4852 8.79655 17.5102 8.86742 17.5102C10.066 17.5088 11.265 17.5088 12.4636 17.5102C12.5345 17.5102 12.6138 17.4852 12.6713 17.5552C12.4204 17.5602 12.1699 17.5706 11.9189 17.5697C10.8327 17.567 9.74641 17.5615 8.66016 17.5565L8.6606 17.557Z" fill="#B8B8B8"/>
<mask id="mask0_2550_32124" style="mask-type:luminance" maskUnits="userSpaceOnUse" x="0" y="1" width="24" height="19">
<path d="M8.65935 17.5389C8.12491 17.5416 7.59048 17.5448 7.05605 17.5466C6.24526 17.5494 5.64753 17.8892 5.30521 18.6634C5.09973 19.1281 4.72442 19.2635 4.35179 19.0373C4.10931 18.8901 3.99075 18.6656 4.06519 18.3853C4.32861 17.394 4.93347 16.7179 5.90116 16.4004C6.20559 16.3004 6.52072 16.2586 6.84343 16.26C7.91275 16.2654 8.98206 16.2636 10.0509 16.2613C11.3574 16.2586 12.6634 16.2513 13.9698 16.2477C16.2488 16.2413 18.5279 16.2359 20.8069 16.2304C21.155 16.2295 21.311 16.1314 21.3685 15.8715C21.4465 15.5185 21.2852 15.2891 20.9321 15.2627C19.4528 15.1541 17.9729 15.0515 16.494 14.9397C14.8158 14.8129 13.1381 14.6762 11.4599 14.5485C10.1361 14.4481 8.81134 14.3582 7.48707 14.2582C7.07432 14.2269 6.65801 14.2091 6.26889 14.0329C5.72598 13.7871 5.37965 13.3587 5.18576 12.8021C4.57377 11.0443 3.96579 9.28562 3.37163 7.52147C3.3012 7.31248 3.26109 7.23252 3.01326 7.26478C1.86683 7.41334 0.937929 7.01262 0.359815 5.97449C-0.170161 5.02177 -0.112661 4.04497 0.518941 3.15721C1.17818 2.23039 2.11332 1.90327 3.192 2.16179C4.22832 2.4103 4.86438 3.11632 5.10062 4.18399C5.14207 4.37117 5.14921 4.55881 5.14074 4.74735C5.13494 4.87139 5.16748 4.93272 5.29986 4.91773C5.37341 4.90955 5.44829 4.91636 5.52228 4.91636C9.46478 4.91818 13.4077 4.92045 17.3502 4.92182C18.0407 4.92182 18.7311 4.91864 19.4215 4.91591C19.8588 4.91409 20.063 4.72691 20.1084 4.28576C20.1494 3.88686 20.2185 3.49432 20.3201 3.10633C20.5524 2.21994 21.024 1.8165 21.9199 1.73063C22.461 1.67884 23.0003 1.6911 23.5406 1.72881C23.7866 1.74608 23.9533 1.90736 23.9876 2.15452C24.0384 2.51889 23.9292 2.77422 23.6765 2.88371C23.508 2.95686 23.3293 2.95731 23.1514 2.95867C22.8323 2.9614 22.5131 2.95095 22.1958 2.99684C21.7862 3.05681 21.5914 3.229 21.492 3.64153C21.3747 4.12675 21.3413 4.6265 21.2758 5.1199C21.0476 6.8418 20.8278 8.5646 20.6112 10.2883C20.4833 11.3069 20.3652 12.3273 20.2457 13.3468C20.1976 13.7562 20.3094 13.8979 20.7222 13.9352C20.9589 13.9565 21.1942 13.9779 21.4256 14.0365C22.2769 14.2523 22.8403 15.0869 22.7418 15.9883C22.6527 16.8074 21.8998 17.5248 21.0672 17.5294C18.2831 17.5439 15.4987 17.5407 12.7146 17.5439C12.6999 17.5439 12.6852 17.5389 12.6709 17.5366C12.6174 17.4976 12.5564 17.5135 12.4984 17.5135C11.2762 17.5126 10.054 17.5126 8.8314 17.5135C8.7739 17.5135 8.71239 17.4962 8.65979 17.5384L8.65935 17.5389Z" fill="white"/>
</mask>
<g mask="url(#mask0_2550_32124)">
<path d="M10.1284 6.19366C10.3406 6.19366 10.5126 6.01832 10.5126 5.80203C10.5126 5.58574 10.3406 5.4104 10.1284 5.4104C9.91616 5.4104 9.74414 5.58574 9.74414 5.80203C9.74414 6.01832 9.91616 6.19366 10.1284 6.19366Z" fill="#292929"/>
<path d="M11.4252 6.19366C11.6374 6.19366 11.8095 6.01832 11.8095 5.80203C11.8095 5.58574 11.6374 5.4104 11.4252 5.4104C11.213 5.4104 11.041 5.58574 11.041 5.80203C11.041 6.01832 11.213 6.19366 11.4252 6.19366Z" fill="#292929"/>
<path d="M4.30078 5.53198H9.17174C9.31928 5.53198 9.43918 5.6542 9.43918 5.80458C9.43918 5.95496 9.31928 6.07717 9.17174 6.07717H4.30078V5.53198Z" fill="#292929"/>
<path d="M15.4686 13.6026C15.6163 13.6026 15.7361 13.4805 15.7361 13.33C15.7361 13.1794 15.6163 13.0574 15.4686 13.0574C15.3209 13.0574 15.2012 13.1794 15.2012 13.33C15.2012 13.4805 15.3209 13.6026 15.4686 13.6026Z" fill="#292929"/>
<path d="M21.0391 13.6028H16.1681C16.0206 13.6028 15.9007 13.4806 15.9007 13.3302C15.9007 13.1798 16.0206 13.0576 16.1681 13.0576H21.0391V13.6028Z" fill="#292929"/>
<path d="M20.3516 12.7241H17.9771C17.8296 12.7241 17.7097 12.6019 17.7097 12.4515C17.7097 12.3011 17.8296 12.1789 17.9771 12.1789H20.3516V12.7241Z" fill="#292929"/>
<path d="M3.35352 6.42627H6.80749C6.95503 6.42627 7.07493 6.54848 7.07493 6.69887C7.07493 6.84925 6.95503 6.97146 6.80749 6.97146H3.35352V6.42627Z" fill="#292929"/>
<path d="M3.03125 7.94412H5.48723C5.63477 7.94412 5.75467 7.8219 5.75467 7.67152C5.75467 7.52114 5.63477 7.39893 5.48723 7.39893H3.03125V7.94412Z" fill="#292929"/>
</g>
<path d="M2.58926 7.37016C4.01927 7.37016 5.17852 6.18856 5.17852 4.73098C5.17852 3.2734 4.01927 2.0918 2.58926 2.0918C1.15925 2.0918 0 3.2734 0 4.73098C0 6.18856 1.15925 7.37016 2.58926 7.37016Z" fill="#B8B8B8"/>
<path d="M3.93552 4.43788H2.87557V3.35749C2.87557 3.19575 2.74675 3.06445 2.58807 3.06445C2.42939 3.06445 2.30057 3.19575 2.30057 3.35749V4.43788H1.24062C1.08194 4.43788 0.953125 4.56918 0.953125 4.73092C0.953125 4.89266 1.08194 5.02396 1.24062 5.02396H2.30057V6.10435C2.30057 6.26609 2.42939 6.39739 2.58807 6.39739C2.74675 6.39739 2.87557 6.26609 2.87557 6.10435V5.02396H3.93552C4.0942 5.02396 4.22302 4.89266 4.22302 4.73092C4.22302 4.56918 4.0942 4.43788 3.93552 4.43788Z" fill="#292929"/>
<path d="M8.32596 9.81754C8.32596 9.4041 8.3215 8.99066 8.32685 8.57723C8.33309 8.102 8.52253 7.87666 8.98074 7.78897C9.06721 7.77216 9.15636 7.76489 9.24417 7.76307C10.1561 7.74127 10.2306 8.13289 10.2306 8.73124V9.19738C10.1726 9.19738 9.99612 9.19874 9.76077 9.19874C9.5807 9.19874 9.48576 9.19647 9.42558 9.19647C9.42558 9.15195 9.42558 9.01292 9.42558 8.85255C9.42558 8.73215 9.42558 8.61221 9.42558 8.49181C9.42558 8.40776 9.43271 8.31372 9.31192 8.31553C9.19558 8.31735 9.19826 8.40822 9.19826 8.49408C9.1987 9.01292 9.19826 9.53131 9.1987 10.0502C9.1987 10.3886 9.1987 10.7266 9.1987 11.0651C9.1987 11.1569 9.18845 11.2632 9.31771 11.2614C9.45455 11.2596 9.42424 11.1437 9.42514 11.0588C9.42736 10.8257 9.42558 10.2055 9.42558 10.1742C9.45099 10.1742 10.2061 10.1742 10.2306 10.1742C10.2306 10.2119 10.2292 10.8852 10.2306 11.1637C10.2315 11.3895 10.1227 11.5617 9.93282 11.6666C9.51294 11.8997 9.08148 11.8856 8.65536 11.6948C8.41154 11.5858 8.32774 11.3613 8.32641 11.1028C8.32418 10.6744 8.32596 10.246 8.32551 9.81754H8.32596Z" fill="#292929"/>
<path d="M13.7713 9.81754C13.7713 9.4041 13.7668 8.99066 13.7722 8.57723C13.7784 8.102 13.9678 7.87666 14.4261 7.78897C14.5125 7.77216 14.6017 7.76489 14.6895 7.76307C15.6014 7.74127 15.6759 8.13289 15.6759 8.73124V9.19738C15.6179 9.19738 15.4414 9.19874 15.2061 9.19874C15.026 9.19874 14.9311 9.19647 14.8709 9.19647C14.8709 9.15195 14.8709 9.01292 14.8709 8.85255C14.8709 8.73215 14.8709 8.61221 14.8709 8.49181C14.8709 8.40776 14.878 8.31372 14.7572 8.31553C14.6409 8.31735 14.6436 8.40822 14.6436 8.49408C14.644 9.01292 14.6436 9.53131 14.644 10.0502C14.644 10.3886 14.644 10.7266 14.644 11.0651C14.644 11.1569 14.6338 11.2632 14.763 11.2614C14.8999 11.2596 14.8696 11.1437 14.8704 11.0588C14.8727 10.8257 14.8709 10.2055 14.8709 10.1742C14.8963 10.1742 15.6514 10.1742 15.6759 10.1742C15.6759 10.2119 15.6745 10.8852 15.6759 11.1637C15.6768 11.3895 15.568 11.5617 15.3781 11.6666C14.9583 11.8997 14.5268 11.8856 14.1007 11.6948C13.8569 11.5858 13.7731 11.3613 13.7717 11.1028C13.7695 10.6744 13.7713 10.246 13.7708 9.81754H13.7713Z" fill="#292929"/>
<path d="M11.9268 11.2769C12.2442 11.2769 12.6757 11.2738 12.9654 11.2738C12.9654 11.4037 12.9725 11.6772 12.9725 11.7926C12.3619 11.7885 11.6126 11.7894 11.002 11.7926C11.0037 11.5096 11.002 11.5268 11.002 11.252C11.2663 10.7672 11.6679 10.0053 11.9375 9.51325C12.0949 9.22612 12.1337 8.91808 12.1221 8.59824C12.1181 8.48148 12.0797 8.38743 11.9447 8.38789C11.8012 8.38789 11.7838 8.49011 11.7851 8.60551C11.7864 8.76361 11.7873 9.07982 11.7873 9.23611H11.0024C11.0024 9.03257 11.0064 8.67593 11.0064 8.46739C11.0064 8.17026 11.2159 7.90585 11.4958 7.82316C11.8078 7.73139 12.1252 7.7332 12.4394 7.81453C12.6935 7.87995 12.8446 8.05895 12.9012 8.31156C13.0011 8.75862 13.0274 9.19159 12.7831 9.62002C12.484 10.1452 12.2255 10.6945 11.9273 11.2765L11.9268 11.2769Z" fill="#292929"/>
</g>
<defs>
<clipPath id="clip0_2550_32124">
<rect width="24" height="24" fill="white"/>
</clipPath>
</defs>
</svg>
