<svg width="24" height="23" viewBox="0 0 24 23" fill="none" xmlns="http://www.w3.org/2000/svg">
<path d="M10.5938 22.0469C11.7587 22.0469 12.7031 21.1025 12.7031 19.9375C12.7031 18.7725 11.7587 17.8281 10.5938 17.8281C9.42877 17.8281 8.48438 18.7725 8.48438 19.9375C8.48438 21.1025 9.42877 22.0469 10.5938 22.0469Z" fill="#292929"/>
<path d="M17.6719 22.0469C18.8369 22.0469 19.7812 21.1025 19.7812 19.9375C19.7812 18.7725 18.8369 17.8281 17.6719 17.8281C16.5069 17.8281 15.5625 18.7725 15.5625 19.9375C15.5625 21.1025 16.5069 22.0469 17.6719 22.0469Z" fill="#292929"/>
<path d="M0.703121 2.35941H3.63528L7.02985 14.2428L6.7636 14.7753C6.06254 16.1759 7.08024 17.8281 8.6505 17.8281H20.4843C20.8729 17.8281 21.1874 17.5136 21.1874 17.125C21.1874 16.7363 20.8729 16.4218 20.4843 16.4218H8.6505C8.12836 16.4218 7.78711 15.872 8.02153 15.4042L8.21587 15.0156H20.4843C20.798 15.0156 21.0741 14.8076 21.1606 14.5054L23.9731 4.66171C24.0335 4.44956 23.991 4.22156 23.8584 4.04512C23.7252 3.86934 23.5172 3.76566 23.2968 3.76566H5.49948L4.84169 1.46331C4.75516 1.1612 4.47916 0.953125 4.16533 0.953125H0.703121C0.314483 0.953125 0 1.26761 0 1.65625C0 2.04488 0.314483 2.35941 0.703121 2.35941Z" fill="#292929"/>
</svg>
