<svg width="20" height="21" viewBox="0 0 20 21" fill="none" xmlns="http://www.w3.org/2000/svg">
<path d="M16.668 8.00008C16.0053 4.67887 12.9286 2.16675 9.23405 2.16675C5.05588 2.16675 1.66797 5.37942 1.66797 9.34175C1.66797 11.2456 2.44979 12.9754 3.72509 14.2591C4.00588 14.5417 4.19334 14.9279 4.11769 15.3253C3.99282 15.9752 3.70985 16.5813 3.29551 17.0865C4.38566 17.2875 5.51919 17.1065 6.49131 16.594C6.83496 16.4129 7.00678 16.3223 7.12803 16.3039C7.2129 16.2911 7.32346 16.3031 7.5013 16.3336M9.16797 14.0515C9.16797 16.4729 11.2203 18.4362 13.7513 18.4362C14.0489 18.4366 14.3456 18.4091 14.638 18.3542C14.8484 18.3147 14.9536 18.2949 15.0271 18.3062C15.1005 18.3173 15.2046 18.3727 15.4128 18.4834C16.0016 18.7966 16.6883 18.9072 17.3487 18.7843C17.0977 18.4757 16.9263 18.1052 16.8506 17.7081C16.8048 17.4652 16.9184 17.2292 17.0885 17.0565C17.8611 16.272 18.3346 15.2149 18.3346 14.0515C18.3346 11.6301 16.2823 9.66675 13.7513 9.66675C11.2203 9.66675 9.16797 11.6301 9.16797 14.0515Z" stroke="#414141" stroke-width="1.8" stroke-linecap="round" stroke-linejoin="round"/>
</svg>
