<svg width="20" height="20" viewBox="0 0 20 20" fill="none" xmlns="http://www.w3.org/2000/svg">
<path d="M18.9684 2.16054L18.9684 2.16051C18.7207 1.67442 18.3256 1.27924 17.8395 1.03158L18.9684 2.16054ZM18.9684 2.16054C19.0872 2.3937 19.1654 2.69563 19.2071 3.20508C19.2494 3.72329 19.25 4.38753 19.25 5.33333V14.6667C19.25 15.6125 19.2494 16.2767 19.2071 16.7949C19.1654 17.3044 19.0872 17.6063 18.9684 17.8395L18.9684 17.8395C18.7208 18.3256 18.3256 18.7208 17.8395 18.9684L17.8395 18.9684M18.9684 2.16054L17.8395 18.9684M17.8395 18.9684C17.6063 19.0872 17.3044 19.1654 16.7949 19.2071C16.2767 19.2494 15.6125 19.25 14.6667 19.25H5.33333C4.38753 19.25 3.72329 19.2494 3.20508 19.2071C2.69563 19.1654 2.3937 19.0872 2.16054 18.9684L2.16051 18.9684M17.8395 18.9684L2.16051 18.9684M2.16053 1.03157L2.16052 1.03157C1.67444 1.27924 1.27924 1.67444 1.03157 2.16052L1.03157 2.16053C0.912761 2.39369 0.834548 2.69562 0.792923 3.20508C0.750583 3.72329 0.75 4.38754 0.75 5.33333V14.6667C0.75 15.6125 0.750583 16.2767 0.792923 16.7949C0.834545 17.3044 0.912754 17.6063 1.03157 17.8395L2.16053 1.03157ZM2.16053 1.03157C2.39369 0.912761 2.69562 0.834548 3.20508 0.792923C3.72329 0.750583 4.38754 0.75 5.33333 0.75H14.6667C15.6125 0.75 16.2767 0.750583 16.7949 0.792923M2.16053 1.03157L16.7949 0.792923M2.16051 18.9684C1.67442 18.7207 1.27924 18.3256 1.03158 17.8395L2.16051 18.9684ZM16.7949 0.792923C17.3044 0.834545 17.6063 0.912754 17.8395 1.03157L16.7949 0.792923Z" fill="white" stroke="#E7E7E7" stroke-width="1.5" stroke-linecap="round" stroke-linejoin="round"/>
</svg>
