<svg width="20" height="20" viewBox="0 0 20 20" fill="none" xmlns="http://www.w3.org/2000/svg">
<g clip-path="url(#clip0_3298_47798)">
<path d="M15.4436 12.5555C15.0111 11.9636 14.3613 11.5675 13.637 11.4543C12.9127 11.3412 12.173 11.5201 11.5805 11.9519L10.4437 12.7768C8.80857 11.2972 7.4968 9.49564 6.5907 7.48517L7.71744 6.66023C8.31161 6.22738 8.70988 5.57657 8.82492 4.85051C8.93996 4.12445 8.76237 3.3824 8.33111 2.78708L7.16413 1.1674C6.95357 0.871562 6.68562 0.621128 6.37625 0.431012C6.06688 0.240896 5.72241 0.114986 5.36336 0.0607799C4.65405 -0.0438348 3.93196 0.133079 3.35134 0.553727L1.56063 1.82131C0.991797 2.23183 0.549063 2.79321 0.282413 3.44206C0.0157639 4.09091 -0.0641799 4.80138 0.051608 5.49326C0.562763 8.47223 1.75466 11.293 3.53449 13.7359C5.31431 16.1788 7.63402 18.1779 10.313 19.5775C10.8514 19.8541 11.448 19.9989 12.0534 20C12.8497 20.0022 13.6256 19.7482 14.2666 19.2757L16.0171 18.0684C16.6106 17.6374 17.0086 16.9884 17.1237 16.2639C17.2388 15.5395 17.0615 14.7991 16.6307 14.2053L15.4436 12.5555ZM15.1318 16.831L13.3813 18.0684C13.041 18.3151 12.6389 18.4627 12.2198 18.4946C11.8007 18.5266 11.3809 18.4418 11.0071 18.2495C8.52507 16.9504 6.37829 15.0932 4.73564 12.8238C3.09299 10.5545 1.99927 7.93498 1.54051 5.17133C1.47056 4.75619 1.5183 4.32974 1.67833 3.94034C1.83836 3.55094 2.10427 3.21416 2.44592 2.96816L4.18633 1.771C4.4043 1.617 4.6639 1.5328 4.93078 1.52956H5.12192C5.2858 1.55487 5.44305 1.61235 5.58462 1.69868C5.7262 1.785 5.8493 1.89848 5.94685 2.03257L7.13395 3.68243C7.32772 3.95225 7.40686 4.28778 7.35408 4.61575C7.30131 4.94372 7.1209 5.23749 6.85227 5.4329L5.22252 6.61999C5.08661 6.7197 4.988 6.86204 4.94242 7.02431C4.89684 7.18659 4.90691 7.35946 4.97102 7.51535C6.03574 10.1525 7.73194 12.4879 9.91055 14.316C10.0422 14.4205 10.2053 14.4773 10.3733 14.4773C10.5414 14.4773 10.7045 14.4205 10.8361 14.316L12.4658 13.139C12.5998 13.0415 12.7517 12.9714 12.9128 12.9327C13.0739 12.8941 13.241 12.8877 13.4046 12.9139C13.5682 12.9401 13.725 12.9983 13.8661 13.0853C14.0071 13.1722 14.1295 13.2862 14.2264 13.4207L15.4034 15.0504C15.5033 15.1849 15.5755 15.3378 15.6159 15.5003C15.6563 15.6628 15.6641 15.8318 15.6389 15.9974C15.6136 16.1629 15.5558 16.3219 15.4688 16.465C15.3817 16.608 15.2672 16.7325 15.1318 16.831ZM10.826 3.89369C10.8591 3.79574 10.9123 3.70575 10.9821 3.62947C11.0519 3.55318 11.1368 3.49228 11.2315 3.45064C11.3261 3.40899 11.4284 3.38752 11.5318 3.38759C11.6352 3.38766 11.7374 3.40928 11.832 3.45105C12.9787 3.87506 13.9734 4.6303 14.6899 5.62086C15.4064 6.61141 15.8123 7.79257 15.8561 9.01431C15.8615 9.21275 15.7886 9.40535 15.653 9.55035C15.5174 9.69535 15.3301 9.78107 15.1318 9.78894C14.9368 9.7891 14.7493 9.71376 14.6086 9.57872C14.468 9.44369 14.3851 9.25944 14.3773 9.06461C14.3452 8.14412 14.0415 7.25369 13.5045 6.50541C12.9674 5.75713 12.221 5.18445 11.3592 4.85947C11.2589 4.83422 11.1648 4.78861 11.0828 4.72547C11.0009 4.66233 10.9328 4.58301 10.8828 4.49243C10.8328 4.40186 10.8019 4.30196 10.7922 4.19896C10.7824 4.09596 10.7939 3.99205 10.826 3.89369ZM19.4576 8.82317C19.4745 9.02289 19.4122 9.22126 19.2843 9.37555C19.1564 9.52983 18.9729 9.62771 18.7735 9.6481H18.7031C18.5153 9.64667 18.3345 9.57614 18.1954 9.44997C18.0562 9.3238 17.9684 9.15081 17.9486 8.96401C17.8028 7.33584 17.2189 5.77752 16.2589 4.45442C15.2989 3.13132 13.9986 2.0928 12.496 1.44908C12.3119 1.37037 12.1666 1.22175 12.0921 1.03592C12.0176 0.850083 12.0199 0.642256 12.0986 0.458156C12.1773 0.274056 12.326 0.128763 12.5118 0.0542408C12.6976 -0.0202817 12.9055 -0.0179296 13.0896 0.0607799C14.8463 0.805859 16.3671 2.01504 17.489 3.55868C18.6108 5.10232 19.2914 6.92219 19.4576 8.82317Z" fill="#FFCD05"/>
</g>
<defs>
<clipPath id="clip0_3298_47798">
<rect width="20" height="20" fill="white"/>
</clipPath>
</defs>
</svg>
