<svg width="20" height="20" viewBox="0 0 20 20" fill="none" xmlns="http://www.w3.org/2000/svg">
<path d="M16.25 4.58366L15.7336 12.9379C15.6016 15.0723 15.5357 16.1396 15.0007 16.9069C14.7361 17.2862 14.3956 17.6064 14.0006 17.847C13.2017 18.3337 12.1325 18.3337 9.99392 18.3337C7.8526 18.3337 6.78192 18.3337 5.98254 17.8461C5.58733 17.6051 5.24667 17.2843 4.98223 16.9043C4.4474 16.1358 4.38287 15.0671 4.25384 12.9297L3.75 4.58366M7.5 9.77941H12.5M8.75 13.0456H11.25M2.5 4.58366H17.5M13.3796 4.58366L12.8108 3.4101C12.4328 2.63054 12.2438 2.24076 11.9179 1.99767C11.8457 1.94374 11.7691 1.89578 11.689 1.85424C11.3281 1.66699 10.8949 1.66699 10.0286 1.66699C9.1405 1.66699 8.6965 1.66699 8.32958 1.86209C8.24826 1.90533 8.17066 1.95524 8.09758 2.0113C7.76787 2.26424 7.5837 2.66828 7.21535 3.47638L6.71061 4.58366" stroke="#414141" stroke-width="1.8" stroke-linecap="round" stroke-linejoin="round"/>
</svg>
