<svg width="21" height="21" viewBox="0 0 21 21" fill="none" xmlns="http://www.w3.org/2000/svg">
<g clip-path="url(#clip0_2550_31718)">
<mask id="path-1-outside-1_2550_31718" maskUnits="userSpaceOnUse" x="1.21289" y="0" width="18" height="21" fill="black">
<rect fill="white" x="1.21289" width="18" height="21"/>
<path d="M18.6817 12.1533L16.4638 8.72052C16.278 8.4196 15.8471 8.32672 15.5573 8.52362L14.5877 9.14776C14.3722 9.28893 14.2645 9.53413 14.2942 9.77561L12.5035 10.3737L10.8317 11.0759L8.21256 10.4035L6.54819 10.1434C6.79711 9.83505 6.75624 9.36695 6.41074 9.14776L5.44109 8.52362C5.13646 8.32672 4.73151 8.41588 4.53461 8.72052L2.31669 12.1533C2.11979 12.4468 2.21267 12.874 2.51359 13.0598L3.47952 13.6839C3.72472 13.8511 4.07394 13.8176 4.28198 13.6096C4.46774 14.1037 4.72408 14.817 4.90984 15.3297C5.03986 15.6938 5.27392 16.0095 5.57855 16.2436C5.0733 16.916 5.70115 17.9117 6.52219 17.7408C6.45903 18.4689 7.32465 19.0002 7.94507 18.6138C8.07882 19.2305 8.86642 19.5352 9.38282 19.1785C9.56114 19.8844 10.5419 20.1073 11.01 19.5426C11.2552 19.6912 11.441 19.8027 11.545 19.8621C12.158 20.2596 13.0459 19.7432 12.9865 19.0076C13.6032 19.4089 14.4837 18.8739 14.4279 18.1494C15.4793 18.9742 16.6867 17.6256 15.7282 16.7228C16.1666 16.5371 16.4044 15.9761 16.226 15.5266C16.6533 14.9842 16.6384 14.3378 16.787 13.6653C16.9988 13.8251 17.3034 13.8325 17.5263 13.6839L18.496 13.0598C18.7857 12.874 18.8786 12.4431 18.6817 12.1533ZM4.02936 13.2604C3.99592 13.3124 3.94391 13.3495 3.88075 13.3607C3.82131 13.3718 3.75815 13.3607 3.70614 13.3272L2.7365 12.7031C2.68449 12.6697 2.64734 12.6177 2.63619 12.5582C2.62505 12.4988 2.63619 12.4356 2.66963 12.3836L4.88754 8.95086C4.95813 8.84312 5.10302 8.80968 5.21076 8.88027L6.1804 9.50441C6.28814 9.57499 6.32157 9.71988 6.25099 9.82762L4.02936 13.2604ZM6.04666 17.2392C5.80889 17.0795 5.74573 16.7377 5.9092 16.4999L6.04294 16.3068C6.11724 16.1953 6.29185 15.9464 6.36987 15.8349C6.78225 15.2702 7.61814 15.8424 7.24292 16.4331C7.19091 16.5074 7.0906 16.656 7.0423 16.7303L6.78596 17.1018C6.62993 17.3396 6.28071 17.4064 6.04666 17.2392ZM8.06024 17.8597L7.90792 18.0863C7.74074 18.3278 7.4101 18.3872 7.16862 18.2237C6.93085 18.064 6.86398 17.7185 7.03116 17.4844L7.23549 17.1835L7.49183 16.8083C7.96736 16.225 8.79212 16.916 8.30544 17.4956C8.30915 17.503 8.05281 17.8708 8.06024 17.8597ZM9.30108 18.677C9.13762 18.9185 8.80698 18.9779 8.5655 18.8144C8.33887 18.6658 8.26829 18.3278 8.40946 18.1012C8.43175 18.0714 8.70295 17.6702 8.7141 17.6591C8.75496 17.5996 8.84413 17.4696 8.88499 17.4101C9.29365 16.8529 10.1221 17.4101 9.76919 17.9971C9.76547 17.9971 9.30108 18.677 9.30108 18.677ZM10.7314 19.212C10.5642 19.4534 10.2336 19.5129 9.99209 19.3494C9.75061 19.1934 9.68746 18.8442 9.85463 18.6101C9.8955 18.547 10.1333 18.2052 10.1667 18.1532C10.2113 18.0937 10.3079 17.934 10.3599 17.8857C10.8243 17.4213 11.5339 18.0008 11.1846 18.5432C11.1624 18.5804 10.7425 19.1934 10.7314 19.212ZM12.4886 19.3197C12.3363 19.5686 12.0094 19.6503 11.7605 19.5017C11.6527 19.4386 11.4967 19.342 11.2515 19.1971C11.441 18.9148 11.7419 18.5655 11.701 18.2015L12.3438 18.625C12.5629 18.781 12.6261 19.0894 12.4886 19.3197ZM15.8508 15.939C15.8025 16.2956 15.3901 16.4999 15.0744 16.3216L12.9493 15.025C12.7115 14.8839 12.4924 15.2405 12.7301 15.3854L14.8589 16.6857C15.1264 16.8752 15.5685 17.0201 15.6279 17.3321C15.7542 17.7742 15.223 18.168 14.8403 17.9154C14.2905 17.5996 12.7858 16.6337 12.2323 16.2733C12.002 16.1247 11.7716 16.4777 12.0057 16.63L13.7666 17.7594C14.3313 18.1457 13.7852 18.9965 13.2019 18.651L12.5778 18.272L11.3035 17.4361C10.9655 17.2875 10.5605 17.2281 10.2336 17.451C10.0813 16.8715 9.36424 16.5817 8.84784 16.8863C8.73267 16.4145 8.23114 16.0876 7.75189 16.1879C7.79647 15.352 6.78225 14.8616 6.16554 15.4337C6.04294 15.5303 5.90548 15.7755 5.8126 15.8981C5.57855 15.7161 5.40394 15.4709 5.30364 15.1922C5.08444 14.5755 4.75009 13.669 4.57176 13.1972L6.29185 10.5372L8.11968 10.8233L10.1778 11.3508C10.1147 11.3805 9.76547 11.5068 9.72832 11.5589L8.5432 12.8034C8.15312 13.1935 8.23114 13.9031 8.69552 14.2003C9.00759 14.4121 9.44226 14.4046 9.74318 14.1891L11.5079 12.9334L15.5982 15.404C15.7839 15.508 15.8842 15.7309 15.8508 15.939ZM15.9697 15.1514C15.9214 15.1142 15.8768 15.0733 15.8211 15.0399L11.6193 12.4988C11.5859 12.4802 11.5413 12.4728 11.5004 12.4728C11.4521 12.4728 11.4075 12.4839 11.3704 12.5136L9.5017 13.8399C9.21192 14.0554 8.74382 13.8548 8.71781 13.4833C8.70295 13.3384 8.75125 13.1935 8.85156 13.0858L10.007 11.8746L12.6484 10.7675L14.4614 10.162L16.4304 13.2121C16.2669 13.8771 16.2929 14.5718 15.9697 15.1514ZM18.3585 12.5582C18.3436 12.6177 18.3102 12.6697 18.2582 12.7031L17.2886 13.3272C17.1845 13.3978 17.0322 13.3644 16.9653 13.2567L16.8427 13.0672C16.839 13.0635 16.8353 13.056 16.8353 13.0523L14.7511 9.82762C14.6843 9.71988 14.7066 9.57499 14.818 9.50441L15.7877 8.88027C15.8917 8.80968 16.044 8.84312 16.1109 8.95086L18.3288 12.3836C18.3585 12.4356 18.3696 12.4951 18.3585 12.5582ZM6.79339 8.63136L8.60636 7.82147C9.75433 8.53848 11.2887 8.53848 12.4366 7.82147L14.2496 8.63136C14.2756 8.6425 14.3053 8.64993 14.335 8.64993C14.4837 8.65365 14.5914 8.48647 14.5282 8.35273L13.7072 6.51375C15.1412 4.13609 13.2985 0.952247 10.5234 1.00054C7.74817 0.952247 5.90177 4.13609 7.3358 6.51375L6.51476 8.35273C6.47761 8.43074 6.49618 8.52734 6.55934 8.58678C6.6225 8.64622 6.71537 8.66851 6.79339 8.63136ZM7.76675 6.58805C7.79647 6.5249 7.78904 6.4506 7.75189 6.39115C7.43239 5.87475 7.26149 5.28405 7.26149 4.68221C7.26149 2.8841 8.72153 1.42406 10.5196 1.42406C12.3177 1.42406 13.7778 2.8841 13.7778 4.68221C13.7778 5.28405 13.6106 5.87475 13.2911 6.39115C13.254 6.4506 13.2502 6.5249 13.2762 6.58805L13.9152 8.02208L12.5035 7.39052C12.4366 7.3608 12.3623 7.36823 12.3029 7.40538C11.2478 8.11125 9.79519 8.11125 8.7401 7.40538C8.68066 7.36451 8.60265 7.3608 8.53949 7.39052L7.12775 8.02208L7.76675 6.58805ZM10.5234 6.23883C9.77662 6.25741 9.77662 7.35336 10.5234 7.37194C11.2701 7.35336 11.2701 6.25741 10.5234 6.23883ZM10.5234 6.95213C10.3339 6.95213 10.3339 6.66236 10.5234 6.66236C10.7128 6.66236 10.7128 6.95213 10.5234 6.95213ZM10.5234 6.19797C10.8354 6.19797 11.0918 5.94163 11.0918 5.64813L11.2998 3.05128C11.2998 2.62404 10.9506 2.27482 10.5234 2.27482C10.0961 2.27482 9.7469 2.62404 9.7469 3.06985L9.95494 5.62956C9.95494 5.94163 10.2076 6.19797 10.5234 6.19797ZM10.5234 2.69834C10.7165 2.69834 10.8763 2.85809 10.8763 3.0327L10.6682 5.62956C10.6645 5.82274 10.3747 5.82274 10.3785 5.61098L10.1704 3.05128C10.1704 2.85809 10.3265 2.69834 10.5234 2.69834Z"/>
</mask>
<path d="M18.6817 12.1533L16.4638 8.72052C16.278 8.4196 15.8471 8.32672 15.5573 8.52362L14.5877 9.14776C14.3722 9.28893 14.2645 9.53413 14.2942 9.77561L12.5035 10.3737L10.8317 11.0759L8.21256 10.4035L6.54819 10.1434C6.79711 9.83505 6.75624 9.36695 6.41074 9.14776L5.44109 8.52362C5.13646 8.32672 4.73151 8.41588 4.53461 8.72052L2.31669 12.1533C2.11979 12.4468 2.21267 12.874 2.51359 13.0598L3.47952 13.6839C3.72472 13.8511 4.07394 13.8176 4.28198 13.6096C4.46774 14.1037 4.72408 14.817 4.90984 15.3297C5.03986 15.6938 5.27392 16.0095 5.57855 16.2436C5.0733 16.916 5.70115 17.9117 6.52219 17.7408C6.45903 18.4689 7.32465 19.0002 7.94507 18.6138C8.07882 19.2305 8.86642 19.5352 9.38282 19.1785C9.56114 19.8844 10.5419 20.1073 11.01 19.5426C11.2552 19.6912 11.441 19.8027 11.545 19.8621C12.158 20.2596 13.0459 19.7432 12.9865 19.0076C13.6032 19.4089 14.4837 18.8739 14.4279 18.1494C15.4793 18.9742 16.6867 17.6256 15.7282 16.7228C16.1666 16.5371 16.4044 15.9761 16.226 15.5266C16.6533 14.9842 16.6384 14.3378 16.787 13.6653C16.9988 13.8251 17.3034 13.8325 17.5263 13.6839L18.496 13.0598C18.7857 12.874 18.8786 12.4431 18.6817 12.1533ZM4.02936 13.2604C3.99592 13.3124 3.94391 13.3495 3.88075 13.3607C3.82131 13.3718 3.75815 13.3607 3.70614 13.3272L2.7365 12.7031C2.68449 12.6697 2.64734 12.6177 2.63619 12.5582C2.62505 12.4988 2.63619 12.4356 2.66963 12.3836L4.88754 8.95086C4.95813 8.84312 5.10302 8.80968 5.21076 8.88027L6.1804 9.50441C6.28814 9.57499 6.32157 9.71988 6.25099 9.82762L4.02936 13.2604ZM6.04666 17.2392C5.80889 17.0795 5.74573 16.7377 5.9092 16.4999L6.04294 16.3068C6.11724 16.1953 6.29185 15.9464 6.36987 15.8349C6.78225 15.2702 7.61814 15.8424 7.24292 16.4331C7.19091 16.5074 7.0906 16.656 7.0423 16.7303L6.78596 17.1018C6.62993 17.3396 6.28071 17.4064 6.04666 17.2392ZM8.06024 17.8597L7.90792 18.0863C7.74074 18.3278 7.4101 18.3872 7.16862 18.2237C6.93085 18.064 6.86398 17.7185 7.03116 17.4844L7.23549 17.1835L7.49183 16.8083C7.96736 16.225 8.79212 16.916 8.30544 17.4956C8.30915 17.503 8.05281 17.8708 8.06024 17.8597ZM9.30108 18.677C9.13762 18.9185 8.80698 18.9779 8.5655 18.8144C8.33887 18.6658 8.26829 18.3278 8.40946 18.1012C8.43175 18.0714 8.70295 17.6702 8.7141 17.6591C8.75496 17.5996 8.84413 17.4696 8.88499 17.4101C9.29365 16.8529 10.1221 17.4101 9.76919 17.9971C9.76547 17.9971 9.30108 18.677 9.30108 18.677ZM10.7314 19.212C10.5642 19.4534 10.2336 19.5129 9.99209 19.3494C9.75061 19.1934 9.68746 18.8442 9.85463 18.6101C9.8955 18.547 10.1333 18.2052 10.1667 18.1532C10.2113 18.0937 10.3079 17.934 10.3599 17.8857C10.8243 17.4213 11.5339 18.0008 11.1846 18.5432C11.1624 18.5804 10.7425 19.1934 10.7314 19.212ZM12.4886 19.3197C12.3363 19.5686 12.0094 19.6503 11.7605 19.5017C11.6527 19.4386 11.4967 19.342 11.2515 19.1971C11.441 18.9148 11.7419 18.5655 11.701 18.2015L12.3438 18.625C12.5629 18.781 12.6261 19.0894 12.4886 19.3197ZM15.8508 15.939C15.8025 16.2956 15.3901 16.4999 15.0744 16.3216L12.9493 15.025C12.7115 14.8839 12.4924 15.2405 12.7301 15.3854L14.8589 16.6857C15.1264 16.8752 15.5685 17.0201 15.6279 17.3321C15.7542 17.7742 15.223 18.168 14.8403 17.9154C14.2905 17.5996 12.7858 16.6337 12.2323 16.2733C12.002 16.1247 11.7716 16.4777 12.0057 16.63L13.7666 17.7594C14.3313 18.1457 13.7852 18.9965 13.2019 18.651L12.5778 18.272L11.3035 17.4361C10.9655 17.2875 10.5605 17.2281 10.2336 17.451C10.0813 16.8715 9.36424 16.5817 8.84784 16.8863C8.73267 16.4145 8.23114 16.0876 7.75189 16.1879C7.79647 15.352 6.78225 14.8616 6.16554 15.4337C6.04294 15.5303 5.90548 15.7755 5.8126 15.8981C5.57855 15.7161 5.40394 15.4709 5.30364 15.1922C5.08444 14.5755 4.75009 13.669 4.57176 13.1972L6.29185 10.5372L8.11968 10.8233L10.1778 11.3508C10.1147 11.3805 9.76547 11.5068 9.72832 11.5589L8.5432 12.8034C8.15312 13.1935 8.23114 13.9031 8.69552 14.2003C9.00759 14.4121 9.44226 14.4046 9.74318 14.1891L11.5079 12.9334L15.5982 15.404C15.7839 15.508 15.8842 15.7309 15.8508 15.939ZM15.9697 15.1514C15.9214 15.1142 15.8768 15.0733 15.8211 15.0399L11.6193 12.4988C11.5859 12.4802 11.5413 12.4728 11.5004 12.4728C11.4521 12.4728 11.4075 12.4839 11.3704 12.5136L9.5017 13.8399C9.21192 14.0554 8.74382 13.8548 8.71781 13.4833C8.70295 13.3384 8.75125 13.1935 8.85156 13.0858L10.007 11.8746L12.6484 10.7675L14.4614 10.162L16.4304 13.2121C16.2669 13.8771 16.2929 14.5718 15.9697 15.1514ZM18.3585 12.5582C18.3436 12.6177 18.3102 12.6697 18.2582 12.7031L17.2886 13.3272C17.1845 13.3978 17.0322 13.3644 16.9653 13.2567L16.8427 13.0672C16.839 13.0635 16.8353 13.056 16.8353 13.0523L14.7511 9.82762C14.6843 9.71988 14.7066 9.57499 14.818 9.50441L15.7877 8.88027C15.8917 8.80968 16.044 8.84312 16.1109 8.95086L18.3288 12.3836C18.3585 12.4356 18.3696 12.4951 18.3585 12.5582ZM6.79339 8.63136L8.60636 7.82147C9.75433 8.53848 11.2887 8.53848 12.4366 7.82147L14.2496 8.63136C14.2756 8.6425 14.3053 8.64993 14.335 8.64993C14.4837 8.65365 14.5914 8.48647 14.5282 8.35273L13.7072 6.51375C15.1412 4.13609 13.2985 0.952247 10.5234 1.00054C7.74817 0.952247 5.90177 4.13609 7.3358 6.51375L6.51476 8.35273C6.47761 8.43074 6.49618 8.52734 6.55934 8.58678C6.6225 8.64622 6.71537 8.66851 6.79339 8.63136ZM7.76675 6.58805C7.79647 6.5249 7.78904 6.4506 7.75189 6.39115C7.43239 5.87475 7.26149 5.28405 7.26149 4.68221C7.26149 2.8841 8.72153 1.42406 10.5196 1.42406C12.3177 1.42406 13.7778 2.8841 13.7778 4.68221C13.7778 5.28405 13.6106 5.87475 13.2911 6.39115C13.254 6.4506 13.2502 6.5249 13.2762 6.58805L13.9152 8.02208L12.5035 7.39052C12.4366 7.3608 12.3623 7.36823 12.3029 7.40538C11.2478 8.11125 9.79519 8.11125 8.7401 7.40538C8.68066 7.36451 8.60265 7.3608 8.53949 7.39052L7.12775 8.02208L7.76675 6.58805ZM10.5234 6.23883C9.77662 6.25741 9.77662 7.35336 10.5234 7.37194C11.2701 7.35336 11.2701 6.25741 10.5234 6.23883ZM10.5234 6.95213C10.3339 6.95213 10.3339 6.66236 10.5234 6.66236C10.7128 6.66236 10.7128 6.95213 10.5234 6.95213ZM10.5234 6.19797C10.8354 6.19797 11.0918 5.94163 11.0918 5.64813L11.2998 3.05128C11.2998 2.62404 10.9506 2.27482 10.5234 2.27482C10.0961 2.27482 9.7469 2.62404 9.7469 3.06985L9.95494 5.62956C9.95494 5.94163 10.2076 6.19797 10.5234 6.19797ZM10.5234 2.69834C10.7165 2.69834 10.8763 2.85809 10.8763 3.0327L10.6682 5.62956C10.6645 5.82274 10.3747 5.82274 10.3785 5.61098L10.1704 3.05128C10.1704 2.85809 10.3265 2.69834 10.5234 2.69834Z" fill="#292929"/>
<path d="M18.6817 12.1533L16.4638 8.72052C16.278 8.4196 15.8471 8.32672 15.5573 8.52362L14.5877 9.14776C14.3722 9.28893 14.2645 9.53413 14.2942 9.77561L12.5035 10.3737L10.8317 11.0759L8.21256 10.4035L6.54819 10.1434C6.79711 9.83505 6.75624 9.36695 6.41074 9.14776L5.44109 8.52362C5.13646 8.32672 4.73151 8.41588 4.53461 8.72052L2.31669 12.1533C2.11979 12.4468 2.21267 12.874 2.51359 13.0598L3.47952 13.6839C3.72472 13.8511 4.07394 13.8176 4.28198 13.6096C4.46774 14.1037 4.72408 14.817 4.90984 15.3297C5.03986 15.6938 5.27392 16.0095 5.57855 16.2436C5.0733 16.916 5.70115 17.9117 6.52219 17.7408C6.45903 18.4689 7.32465 19.0002 7.94507 18.6138C8.07882 19.2305 8.86642 19.5352 9.38282 19.1785C9.56114 19.8844 10.5419 20.1073 11.01 19.5426C11.2552 19.6912 11.441 19.8027 11.545 19.8621C12.158 20.2596 13.0459 19.7432 12.9865 19.0076C13.6032 19.4089 14.4837 18.8739 14.4279 18.1494C15.4793 18.9742 16.6867 17.6256 15.7282 16.7228C16.1666 16.5371 16.4044 15.9761 16.226 15.5266C16.6533 14.9842 16.6384 14.3378 16.787 13.6653C16.9988 13.8251 17.3034 13.8325 17.5263 13.6839L18.496 13.0598C18.7857 12.874 18.8786 12.4431 18.6817 12.1533ZM4.02936 13.2604C3.99592 13.3124 3.94391 13.3495 3.88075 13.3607C3.82131 13.3718 3.75815 13.3607 3.70614 13.3272L2.7365 12.7031C2.68449 12.6697 2.64734 12.6177 2.63619 12.5582C2.62505 12.4988 2.63619 12.4356 2.66963 12.3836L4.88754 8.95086C4.95813 8.84312 5.10302 8.80968 5.21076 8.88027L6.1804 9.50441C6.28814 9.57499 6.32157 9.71988 6.25099 9.82762L4.02936 13.2604ZM6.04666 17.2392C5.80889 17.0795 5.74573 16.7377 5.9092 16.4999L6.04294 16.3068C6.11724 16.1953 6.29185 15.9464 6.36987 15.8349C6.78225 15.2702 7.61814 15.8424 7.24292 16.4331C7.19091 16.5074 7.0906 16.656 7.0423 16.7303L6.78596 17.1018C6.62993 17.3396 6.28071 17.4064 6.04666 17.2392ZM8.06024 17.8597L7.90792 18.0863C7.74074 18.3278 7.4101 18.3872 7.16862 18.2237C6.93085 18.064 6.86398 17.7185 7.03116 17.4844L7.23549 17.1835L7.49183 16.8083C7.96736 16.225 8.79212 16.916 8.30544 17.4956C8.30915 17.503 8.05281 17.8708 8.06024 17.8597ZM9.30108 18.677C9.13762 18.9185 8.80698 18.9779 8.5655 18.8144C8.33887 18.6658 8.26829 18.3278 8.40946 18.1012C8.43175 18.0714 8.70295 17.6702 8.7141 17.6591C8.75496 17.5996 8.84413 17.4696 8.88499 17.4101C9.29365 16.8529 10.1221 17.4101 9.76919 17.9971C9.76547 17.9971 9.30108 18.677 9.30108 18.677ZM10.7314 19.212C10.5642 19.4534 10.2336 19.5129 9.99209 19.3494C9.75061 19.1934 9.68746 18.8442 9.85463 18.6101C9.8955 18.547 10.1333 18.2052 10.1667 18.1532C10.2113 18.0937 10.3079 17.934 10.3599 17.8857C10.8243 17.4213 11.5339 18.0008 11.1846 18.5432C11.1624 18.5804 10.7425 19.1934 10.7314 19.212ZM12.4886 19.3197C12.3363 19.5686 12.0094 19.6503 11.7605 19.5017C11.6527 19.4386 11.4967 19.342 11.2515 19.1971C11.441 18.9148 11.7419 18.5655 11.701 18.2015L12.3438 18.625C12.5629 18.781 12.6261 19.0894 12.4886 19.3197ZM15.8508 15.939C15.8025 16.2956 15.3901 16.4999 15.0744 16.3216L12.9493 15.025C12.7115 14.8839 12.4924 15.2405 12.7301 15.3854L14.8589 16.6857C15.1264 16.8752 15.5685 17.0201 15.6279 17.3321C15.7542 17.7742 15.223 18.168 14.8403 17.9154C14.2905 17.5996 12.7858 16.6337 12.2323 16.2733C12.002 16.1247 11.7716 16.4777 12.0057 16.63L13.7666 17.7594C14.3313 18.1457 13.7852 18.9965 13.2019 18.651L12.5778 18.272L11.3035 17.4361C10.9655 17.2875 10.5605 17.2281 10.2336 17.451C10.0813 16.8715 9.36424 16.5817 8.84784 16.8863C8.73267 16.4145 8.23114 16.0876 7.75189 16.1879C7.79647 15.352 6.78225 14.8616 6.16554 15.4337C6.04294 15.5303 5.90548 15.7755 5.8126 15.8981C5.57855 15.7161 5.40394 15.4709 5.30364 15.1922C5.08444 14.5755 4.75009 13.669 4.57176 13.1972L6.29185 10.5372L8.11968 10.8233L10.1778 11.3508C10.1147 11.3805 9.76547 11.5068 9.72832 11.5589L8.5432 12.8034C8.15312 13.1935 8.23114 13.9031 8.69552 14.2003C9.00759 14.4121 9.44226 14.4046 9.74318 14.1891L11.5079 12.9334L15.5982 15.404C15.7839 15.508 15.8842 15.7309 15.8508 15.939ZM15.9697 15.1514C15.9214 15.1142 15.8768 15.0733 15.8211 15.0399L11.6193 12.4988C11.5859 12.4802 11.5413 12.4728 11.5004 12.4728C11.4521 12.4728 11.4075 12.4839 11.3704 12.5136L9.5017 13.8399C9.21192 14.0554 8.74382 13.8548 8.71781 13.4833C8.70295 13.3384 8.75125 13.1935 8.85156 13.0858L10.007 11.8746L12.6484 10.7675L14.4614 10.162L16.4304 13.2121C16.2669 13.8771 16.2929 14.5718 15.9697 15.1514ZM18.3585 12.5582C18.3436 12.6177 18.3102 12.6697 18.2582 12.7031L17.2886 13.3272C17.1845 13.3978 17.0322 13.3644 16.9653 13.2567L16.8427 13.0672C16.839 13.0635 16.8353 13.056 16.8353 13.0523L14.7511 9.82762C14.6843 9.71988 14.7066 9.57499 14.818 9.50441L15.7877 8.88027C15.8917 8.80968 16.044 8.84312 16.1109 8.95086L18.3288 12.3836C18.3585 12.4356 18.3696 12.4951 18.3585 12.5582ZM6.79339 8.63136L8.60636 7.82147C9.75433 8.53848 11.2887 8.53848 12.4366 7.82147L14.2496 8.63136C14.2756 8.6425 14.3053 8.64993 14.335 8.64993C14.4837 8.65365 14.5914 8.48647 14.5282 8.35273L13.7072 6.51375C15.1412 4.13609 13.2985 0.952247 10.5234 1.00054C7.74817 0.952247 5.90177 4.13609 7.3358 6.51375L6.51476 8.35273C6.47761 8.43074 6.49618 8.52734 6.55934 8.58678C6.6225 8.64622 6.71537 8.66851 6.79339 8.63136ZM7.76675 6.58805C7.79647 6.5249 7.78904 6.4506 7.75189 6.39115C7.43239 5.87475 7.26149 5.28405 7.26149 4.68221C7.26149 2.8841 8.72153 1.42406 10.5196 1.42406C12.3177 1.42406 13.7778 2.8841 13.7778 4.68221C13.7778 5.28405 13.6106 5.87475 13.2911 6.39115C13.254 6.4506 13.2502 6.5249 13.2762 6.58805L13.9152 8.02208L12.5035 7.39052C12.4366 7.3608 12.3623 7.36823 12.3029 7.40538C11.2478 8.11125 9.79519 8.11125 8.7401 7.40538C8.68066 7.36451 8.60265 7.3608 8.53949 7.39052L7.12775 8.02208L7.76675 6.58805ZM10.5234 6.23883C9.77662 6.25741 9.77662 7.35336 10.5234 7.37194C11.2701 7.35336 11.2701 6.25741 10.5234 6.23883ZM10.5234 6.95213C10.3339 6.95213 10.3339 6.66236 10.5234 6.66236C10.7128 6.66236 10.7128 6.95213 10.5234 6.95213ZM10.5234 6.19797C10.8354 6.19797 11.0918 5.94163 11.0918 5.64813L11.2998 3.05128C11.2998 2.62404 10.9506 2.27482 10.5234 2.27482C10.0961 2.27482 9.7469 2.62404 9.7469 3.06985L9.95494 5.62956C9.95494 5.94163 10.2076 6.19797 10.5234 6.19797ZM10.5234 2.69834C10.7165 2.69834 10.8763 2.85809 10.8763 3.0327L10.6682 5.62956C10.6645 5.82274 10.3747 5.82274 10.3785 5.61098L10.1704 3.05128C10.1704 2.85809 10.3265 2.69834 10.5234 2.69834Z" stroke="#292929" stroke-width="0.4" mask="url(#path-1-outside-1_2550_31718)"/>
</g>
<defs>
<clipPath id="clip0_2550_31718">
<rect width="20" height="20" fill="white" transform="translate(0.5 0.5)"/>
</clipPath>
</defs>
</svg>
