<svg width="24" height="24" viewBox="0 0 24 24" fill="none" xmlns="http://www.w3.org/2000/svg">
<path d="M16.9796 22.6665C15.8549 22.6665 14.7555 22.333 13.8203 21.7082C12.8851 21.0833 12.1563 20.1952 11.7258 19.1561C11.2954 18.117 11.1828 16.9736 11.4022 15.8705C11.6217 14.7674 12.1633 13.7541 12.9586 12.9588C13.7539 12.1635 14.7671 11.6219 15.8702 11.4025C16.9733 11.1831 18.1167 11.2957 19.1558 11.7261C20.1949 12.1565 21.0831 12.8854 21.7079 13.8205C22.3328 14.7557 22.6663 15.8552 22.6663 16.9799C22.6645 18.4875 22.0648 19.9329 20.9988 20.999C19.9327 22.0651 18.4873 22.6648 16.9796 22.6665ZM16.9796 12.7132C16.1358 12.7132 15.3109 12.9635 14.6092 13.4323C13.9076 13.9011 13.3607 14.5675 13.0378 15.3471C12.7148 16.1267 12.6303 16.9846 12.795 17.8123C12.9596 18.6399 13.3659 19.4002 13.9626 19.9969C14.5594 20.5936 15.3196 20.9999 16.1473 21.1646C16.9749 21.3292 17.8328 21.2447 18.6124 20.9218C19.3921 20.5988 20.0584 20.052 20.5272 19.3503C20.9961 18.6487 21.2463 17.8237 21.2463 16.9799C21.2445 15.8488 20.7945 14.7646 19.9947 13.9648C19.1949 13.1651 18.1107 12.715 16.9796 12.7132Z" fill="#B8B8B8"/>
<path fill-rule="evenodd" clip-rule="evenodd" d="M5.60005 17.6868C5.74114 17.6868 5.87905 17.7286 5.99636 17.807C6.11367 17.8854 6.2051 17.9968 6.25909 18.1271C6.31308 18.2575 6.3272 18.4009 6.29968 18.5393C6.27215 18.6776 6.20422 18.8047 6.10445 18.9045C6.00469 19.0043 5.87759 19.0722 5.73922 19.0997C5.60084 19.1273 5.45742 19.1131 5.32707 19.0591C5.19673 19.0051 5.08532 18.9137 5.00694 18.7964C4.92855 18.6791 4.88672 18.5412 4.88672 18.4001C4.88672 18.2109 4.96187 18.0295 5.09565 17.8957C5.22943 17.7619 5.41086 17.6868 5.60005 17.6868Z" fill="#B8B8B8"/>
<path fill-rule="evenodd" clip-rule="evenodd" d="M8.44575 17.6868C8.58684 17.6868 8.72475 17.7286 8.84206 17.807C8.95937 17.8854 9.0508 17.9968 9.10479 18.1271C9.15878 18.2575 9.17291 18.4009 9.14538 18.5393C9.11786 18.6776 9.04992 18.8047 8.95016 18.9045C8.8504 19.0043 8.72329 19.0722 8.58492 19.0997C8.44655 19.1273 8.30312 19.1131 8.17277 19.0591C8.04243 19.0051 7.93102 18.9137 7.85264 18.7964C7.77426 18.6791 7.73242 18.5412 7.73242 18.4001C7.73242 18.2109 7.80758 18.0295 7.94135 17.8957C8.07513 17.7619 8.25657 17.6868 8.44575 17.6868Z" fill="#B8B8B8"/>
<path d="M21.6273 2.37327C21.2981 2.04217 20.9064 1.77975 20.475 1.60122C20.0435 1.42269 19.5809 1.33161 19.114 1.33327H4.88732C3.94492 1.33327 3.04111 1.70764 2.37473 2.37402C1.70835 3.0404 1.33398 3.94421 1.33398 4.88661V19.1133C1.33398 20.0557 1.70835 20.9595 2.37473 21.6259C3.04111 22.2922 3.94492 22.6666 4.88732 22.6666H10.574V21.2466H4.88732C4.32152 21.2466 3.7789 21.0218 3.37882 20.6218C2.97875 20.2217 2.75398 19.6791 2.75398 19.1133V4.88661C2.75398 4.32081 2.97875 3.77819 3.37882 3.37811C3.7789 2.97804 4.32152 2.75327 4.88732 2.75327H8.44065V8.43994C8.4444 8.54622 8.47187 8.65032 8.52105 8.74461C8.57022 8.8389 8.63985 8.92101 8.72485 8.98492C8.80985 9.04883 8.90807 9.09292 9.01231 9.11398C9.11655 9.13503 9.22418 9.13251 9.32732 9.10661L11.994 8.43994L14.6607 9.10661C14.7659 9.13162 14.8754 9.13324 14.9814 9.11136C15.0873 9.08947 15.1872 9.04461 15.274 8.97994C15.3589 8.91336 15.4277 8.82837 15.475 8.73137C15.5224 8.63436 15.5471 8.52788 15.5473 8.41994V2.75327H19.1007C19.6664 2.75327 20.2091 2.97804 20.6091 3.37811C21.0092 3.77819 21.234 4.32081 21.234 4.88661V10.5733H22.6673V4.88661C22.669 4.41969 22.5779 3.95709 22.3994 3.52564C22.2208 3.0942 21.9584 2.7025 21.6273 2.37327ZM14.134 7.53327L12.174 7.03994C12.0602 7.01144 11.9411 7.01144 11.8273 7.03994L9.86732 7.53327V2.75327H14.134V7.53327Z" fill="#B8B8B8"/>
<path d="M16.6193 18.7534C16.5265 18.7535 16.4346 18.7353 16.3488 18.6998C16.263 18.6644 16.185 18.6123 16.1193 18.5467L14.666 17.1267L15.6727 16.1201L16.5927 17.0401L18.226 15.4067L19.2327 16.4134L17.0993 18.5467C16.9716 18.6744 16.7999 18.7484 16.6193 18.7534Z" fill="#B8B8B8"/>
</svg>
