<svg width="23" height="20" viewBox="0 0 23 20" fill="none" xmlns="http://www.w3.org/2000/svg">
<path d="M1.75 2.6C1.75 2.03995 1.75 1.75992 1.85899 1.54601C1.95487 1.35785 2.10785 1.20487 2.29601 1.10899C2.50992 1 2.78995 1 3.35 1H20.15C20.7101 1 20.9901 1 21.204 1.10899C21.3922 1.20487 21.5451 1.35785 21.641 1.54601C21.75 1.75992 21.75 2.03995 21.75 2.6V3.26939C21.75 3.53819 21.75 3.67259 21.7172 3.79756C21.688 3.90831 21.6401 4.01323 21.5755 4.10776C21.5026 4.21443 21.401 4.30245 21.1979 4.4785L14.8021 10.0215C14.599 10.1975 14.4974 10.2856 14.4245 10.3922C14.3599 10.4868 14.312 10.5917 14.2828 10.7024C14.25 10.8274 14.25 10.9618 14.25 11.2306V16.4584C14.25 16.6539 14.25 16.7517 14.2185 16.8363C14.1906 16.911 14.1453 16.9779 14.0863 17.0315C14.0195 17.0922 13.9287 17.1285 13.7471 17.2012L10.3471 18.5612C9.9796 18.7082 9.7958 18.7817 9.64827 18.751C9.51927 18.7242 9.40605 18.6476 9.33325 18.5377C9.25 18.4122 9.25 18.2142 9.25 17.8184V11.2306C9.25 10.9618 9.25 10.8274 9.21715 10.7024C9.18805 10.5917 9.14014 10.4868 9.07551 10.3922C9.00258 10.2856 8.90102 10.1975 8.69789 10.0215L2.30211 4.4785C2.09898 4.30245 1.99742 4.21443 1.92449 4.10776C1.85986 4.01323 1.81195 3.90831 1.78285 3.79756C1.75 3.67259 1.75 3.53819 1.75 3.26939V2.6Z" stroke="#FFCD05" stroke-width="1.8" stroke-linecap="round" stroke-linejoin="round"/>
</svg>
