<svg width="20" height="20" viewBox="0 0 20 20" fill="none" xmlns="http://www.w3.org/2000/svg">
<path d="M6.2487 16.25C6.2487 15.4453 6.52247 14.6313 7.19113 14.1837C7.99304 13.6467 8.95903 13.3333 9.9987 13.3333C11.0384 13.3333 12.0044 13.6467 12.8063 14.1837C13.4749 14.6313 13.7487 15.4453 13.7487 16.25M14.582 9.16667C15.5071 9.16667 16.3666 9.48075 17.0799 10.0187C17.6844 10.4747 17.9154 11.2459 17.9154 12.0032V12.0833M5.41536 9.16667C4.49026 9.16667 3.63075 9.48075 2.9175 10.0187C2.31291 10.4747 2.08203 11.2459 2.08203 12.0032V12.0833M12.082 9.16667C12.082 10.3173 11.1493 11.25 9.9987 11.25C8.8481 11.25 7.91536 10.3173 7.91536 9.16667C7.91536 8.01607 8.8481 7.08333 9.9987 7.08333C11.1493 7.08333 12.082 8.01607 12.082 9.16667ZM16.2487 5.41667C16.2487 6.33714 15.5025 7.08333 14.582 7.08333C13.6616 7.08333 12.9154 6.33714 12.9154 5.41667C12.9154 4.49619 13.6616 3.75 14.582 3.75C15.5025 3.75 16.2487 4.49619 16.2487 5.41667ZM7.08203 5.41667C7.08203 6.33714 6.33584 7.08333 5.41536 7.08333C4.49489 7.08333 3.7487 6.33714 3.7487 5.41667C3.7487 4.49619 4.49489 3.75 5.41536 3.75C6.33584 3.75 7.08203 4.49619 7.08203 5.41667Z" stroke="#414141" stroke-width="1.8" stroke-linecap="round" stroke-linejoin="round"/>
</svg>
