<svg width="18" height="20" viewBox="0 0 18 20" fill="none" xmlns="http://www.w3.org/2000/svg">
<path d="M10.3481 17.8059C9.98675 18.1442 9.50367 18.3334 9.00092 18.3334C8.49817 18.3334 8.01517 18.1442 7.65375 17.8059C4.34418 14.6884 -0.0910331 11.2058 2.07189 6.1498C3.24136 3.41605 6.04862 1.66675 9.00092 1.66675C11.9532 1.66675 14.7605 3.41605 15.93 6.1498C18.0902 11.1995 13.6658 14.6992 10.3481 17.8059Z" stroke="#414141" stroke-width="1.8" stroke-linecap="round" stroke-linejoin="round"/>
<path d="M11.9167 9.16675C11.9167 10.7776 10.6108 12.0834 9 12.0834C7.38917 12.0834 6.08333 10.7776 6.08333 9.16675C6.08333 7.55591 7.38917 6.25008 9 6.25008C10.6108 6.25008 11.9167 7.55591 11.9167 9.16675Z" stroke="#414141" stroke-width="1.8" stroke-linecap="round" stroke-linejoin="round"/>
</svg>
