<svg width="135" height="114" viewBox="0 0 135 114" fill="none" xmlns="http://www.w3.org/2000/svg">
<g clip-path="url(#clip0_1704_14767)">
<path d="M48.7082 87.7954C45.702 87.8105 42.6959 87.8281 39.6897 87.8382C35.129 87.8533 31.7668 89.7365 29.8412 94.0267C28.6854 96.6024 26.5743 97.3526 24.4782 96.0988C23.1143 95.2831 22.4474 94.0393 22.8661 92.4859C24.3478 86.9922 27.7502 83.2458 33.1934 81.4859C34.9058 80.932 36.6785 80.7004 38.4937 80.708C44.5086 80.7382 50.5235 80.7281 56.5358 80.7155C63.8846 80.7004 71.2308 80.6601 78.5795 80.64C91.399 80.6047 104.219 80.5745 117.038 80.5443C118.996 80.5393 119.874 79.9955 120.197 78.5553C120.636 76.599 119.728 75.3276 117.743 75.1816C109.421 74.5798 101.097 74.0108 92.778 73.3915C83.3383 72.689 73.901 71.9312 64.4612 71.2237C57.0147 70.6673 49.5632 70.1688 42.1142 69.6149C39.7925 69.4412 37.4507 69.343 35.2619 68.3661C32.2081 67.004 30.2599 64.6298 29.1693 61.5456C25.7268 51.8045 22.3069 42.0584 18.9648 32.2821C18.5686 31.1239 18.343 30.6808 16.949 30.8596C10.5003 31.6829 5.27525 29.4622 2.02335 23.7092C-0.962776 18.427 -0.636834 13.0139 2.91593 8.09431C6.62665 2.96067 11.8868 1.14791 17.9544 2.58049C23.7837 3.95769 27.3615 7.87023 28.6904 13.7869C28.9236 14.8242 28.9637 15.864 28.916 16.9089C28.8834 17.5962 29.0665 17.9361 29.8111 17.853C30.2248 17.8077 30.646 17.8454 31.0622 17.8454C53.2388 17.8555 75.4179 17.8681 97.5944 17.8757C101.478 17.8757 105.362 17.858 109.246 17.8429C111.705 17.8329 112.854 16.7956 113.109 14.3508C113.34 12.1403 113.729 9.96498 114.3 7.81484C115.606 2.90276 118.259 0.667022 123.299 0.191173C126.342 -0.0958479 129.376 -0.0278693 132.415 0.181102C133.799 0.276775 134.737 1.17057 134.93 2.54021C135.216 4.55942 134.601 5.97438 133.18 6.58115C132.232 6.98651 131.227 6.98903 130.226 6.99658C128.431 7.01169 126.636 6.95378 124.851 7.20807C122.547 7.54041 121.451 8.49462 120.892 10.7807C120.232 13.4696 120.044 16.2391 119.676 18.9734C118.392 28.5156 117.156 38.0628 115.937 47.615C115.218 53.2597 114.553 58.9146 113.881 64.5643C113.611 66.8328 114.24 67.6183 116.562 67.8248C117.893 67.9431 119.217 68.0614 120.518 68.3862C125.307 69.5821 128.476 74.2072 127.922 79.2024C127.421 83.7418 123.186 87.7173 118.502 87.7425C102.842 87.8231 87.1794 87.8054 71.5191 87.8231C71.4364 87.8231 71.3536 87.7954 71.2734 87.7828C70.9725 87.5662 70.629 87.6544 70.3031 87.6544C63.4282 87.6493 56.5534 87.6493 49.676 87.6544C49.3526 87.6544 49.0066 87.5587 48.7107 87.7928L48.7082 87.7954Z" fill="#111111"/>
<path d="M57.0498 114C50.9923 113.98 46.2361 109.206 46.2511 103.158C46.2662 97.2242 51.0901 92.4858 57.0975 92.5035C63.1625 92.5211 67.7808 97.2368 67.6956 103.322C67.6103 109.387 62.9945 114.02 57.0473 114H57.0498Z" fill="#111111"/>
<path d="M94.8916 103.113C94.8816 109.342 90.3009 114.015 84.2208 114.002C78.1984 113.99 73.4622 109.271 73.4672 103.292C73.4747 97.2492 78.2561 92.4907 84.306 92.5083C90.168 92.5235 94.9017 97.2668 94.8916 103.116V103.113Z" fill="#111111"/>
<path d="M48.7082 87.7956C49.0266 87.3978 49.4729 87.5362 49.8716 87.5362C56.6136 87.5287 63.358 87.5287 70.1 87.5362C70.4987 87.5362 70.945 87.3978 71.2684 87.7855C69.8568 87.8132 68.4478 87.8711 67.0362 87.8661C60.926 87.851 54.8159 87.8208 48.7057 87.7931L48.7082 87.7956Z" fill="#111111"/>
<mask id="mask0_1704_14767" style="mask-type:luminance" maskUnits="userSpaceOnUse" x="-1" y="-1" width="136" height="98">
<path d="M48.7082 87.6948C45.702 87.7099 42.6958 87.7275 39.6897 87.7376C35.129 87.7527 31.7668 89.6359 29.8412 93.9261C28.6854 96.5018 26.5743 97.2521 24.4782 95.9982C23.1143 95.1825 22.4473 93.9387 22.8661 92.3853C24.3478 86.8916 27.7502 83.1452 33.1934 81.3854C34.9058 80.8315 36.6785 80.5998 38.4937 80.6074C44.5086 80.6376 50.5235 80.6275 56.5358 80.6149C63.8846 80.5998 71.2308 80.5595 78.5795 80.5394C91.399 80.5042 104.219 80.4739 117.038 80.4437C118.996 80.4387 119.874 79.8949 120.197 78.4547C120.636 76.4985 119.728 75.227 117.743 75.081C109.421 74.4792 101.097 73.9102 92.778 73.2909C83.3383 72.5884 73.901 71.8306 64.4612 71.1231C57.0147 70.5667 49.5632 70.0682 42.1142 69.5143C39.7925 69.3406 37.4507 69.2424 35.2619 68.2655C32.208 66.9034 30.2599 64.5292 29.1693 61.445C25.7268 51.7039 22.3069 41.9578 18.9648 32.1815C18.5686 31.0233 18.343 30.5802 16.949 30.759C10.5003 31.5823 5.27524 29.3616 2.02335 23.6086C-0.957766 18.329 -0.634331 12.9159 2.91843 7.99624C6.62665 2.86008 11.8868 1.04732 17.9544 2.47991C23.7837 3.8571 27.3615 7.76964 28.6904 13.6863C28.9236 14.7236 28.9637 15.7634 28.916 16.8083C28.8834 17.4956 29.0665 17.8355 29.8111 17.7524C30.2248 17.7071 30.646 17.7449 31.0622 17.7449C53.2388 17.7549 75.4179 17.7675 97.5944 17.7751C101.478 17.7751 105.362 17.7575 109.246 17.7423C111.705 17.7323 112.854 16.695 113.109 14.2503C113.34 12.0397 113.729 9.86439 114.3 7.71425C115.606 2.80217 118.259 0.566436 123.299 0.0905866C126.342 -0.196434 129.376 -0.128455 132.415 0.0805157C133.799 0.176189 134.737 1.06998 134.93 2.43962C135.216 4.45884 134.601 5.8738 133.18 6.48057C132.232 6.88592 131.227 6.88844 130.226 6.89599C128.431 6.9111 126.636 6.85319 124.851 7.10748C122.547 7.43982 121.451 8.39404 120.892 10.6801C120.232 13.3691 120.044 16.1386 119.676 18.8728C118.392 28.415 117.156 37.9622 115.937 47.5144C115.218 53.1592 114.553 58.814 113.881 64.4637C113.611 66.7322 114.24 67.5177 116.562 67.7242C117.893 67.8425 119.217 67.9609 120.518 68.2856C125.307 69.4816 128.476 74.1066 127.922 79.1018C127.421 83.6412 123.186 87.6167 118.502 87.6419C102.842 87.7225 87.1794 87.7048 71.5191 87.7225C71.4364 87.7225 71.3536 87.6948 71.2734 87.6822C70.9725 87.4657 70.629 87.5538 70.3031 87.5538C63.4282 87.5487 56.5534 87.5487 49.676 87.5538C49.3526 87.5538 49.0066 87.4581 48.7107 87.6923L48.7082 87.6948Z" fill="white"/>
</mask>
<g mask="url(#mask0_1704_14767)">
<path d="M56.9671 24.822C58.1607 24.822 59.1283 23.8503 59.1283 22.6517C59.1283 21.4531 58.1607 20.4814 56.9671 20.4814C55.7734 20.4814 54.8058 21.4531 54.8058 22.6517C54.8058 23.8503 55.7734 24.822 56.9671 24.822Z" fill="white"/>
<path d="M64.2631 24.822C65.4568 24.822 66.4244 23.8503 66.4244 22.6517C66.4244 21.4531 65.4568 20.4814 64.2631 20.4814C63.0695 20.4814 62.1019 21.4531 62.1019 22.6517C62.1019 23.8503 63.0695 24.822 64.2631 24.822Z" fill="white"/>
<path d="M24.1899 21.1562H51.589C52.4189 21.1562 53.0934 21.8335 53.0934 22.6669C53.0934 23.5002 52.4189 24.1775 51.589 24.1775H24.1899V21.1562Z" fill="white"/>
<path d="M87.0063 65.8811C87.8372 65.8811 88.5107 65.2048 88.5107 64.3705C88.5107 63.5362 87.8372 62.8599 87.0063 62.8599C86.1755 62.8599 85.502 63.5362 85.502 64.3705C85.502 65.2048 86.1755 65.8811 87.0063 65.8811Z" fill="white"/>
<path d="M118.349 65.8809H90.9502C90.1203 65.8809 89.4459 65.2036 89.4459 64.3702C89.4459 63.5369 90.1203 62.8596 90.9502 62.8596H118.349V65.8809Z" fill="white"/>
<path d="M114.483 61.0117H101.127C100.297 61.0117 99.6228 60.3345 99.6228 59.5011C99.6228 58.6677 100.297 57.9905 101.127 57.9905H114.483V61.0117Z" fill="white"/>
<path d="M18.862 26.1108H38.2906C39.1205 26.1108 39.795 26.7881 39.795 27.6215C39.795 28.4548 39.1205 29.1321 38.2906 29.1321H18.862V26.1108Z" fill="white"/>
<path d="M17.0518 34.5227H30.8667C31.6966 34.5227 32.371 33.8455 32.371 33.0121C32.371 32.1787 31.6966 31.5015 30.8667 31.5015H17.0518V34.5227Z" fill="white"/>
</g>
<path d="M14.5646 31.3432C22.6084 31.3432 29.1292 24.7952 29.1292 16.7177C29.1292 8.64032 22.6084 2.09229 14.5646 2.09229C6.52078 2.09229 0 8.64032 0 16.7177C0 24.7952 6.52078 31.3432 14.5646 31.3432Z" fill="#111111"/>
<path d="M22.1414 15.094H16.1792V9.10684C16.1792 8.21053 15.4546 7.48291 14.562 7.48291C13.6695 7.48291 12.9449 8.21053 12.9449 9.10684V15.094H6.98265C6.09007 15.094 5.36548 15.8216 5.36548 16.7179C5.36548 17.6142 6.09007 18.3419 6.98265 18.3419H12.9449V24.329C12.9449 25.2253 13.6695 25.9529 14.562 25.9529C15.4546 25.9529 16.1792 25.2253 16.1792 24.329V18.3419H22.1414C23.034 18.3419 23.7586 17.6142 23.7586 16.7179C23.7586 15.8216 23.034 15.094 22.1414 15.094Z" fill="#FECC05"/>
<path d="M46.8328 44.9066C46.8328 42.6154 46.8077 40.3243 46.8378 38.0332C46.8729 35.3996 47.9385 34.1508 50.5159 33.6649C51.0023 33.5718 51.5038 33.5315 51.9977 33.5214C57.1275 33.4006 57.5462 35.5708 57.5462 38.8867V41.4699C57.2203 41.4699 56.2274 41.4774 54.9036 41.4774C53.8907 41.4774 53.3566 41.4648 53.0182 41.4648C53.0182 41.2181 53.0182 40.4477 53.0182 39.5589C53.0182 38.8917 53.0182 38.227 53.0182 37.5598C53.0182 37.0941 53.0583 36.5729 52.3788 36.583C51.7244 36.593 51.7395 37.0966 51.7395 37.5724C51.742 40.4477 51.7395 43.3204 51.742 46.1956C51.742 48.0713 51.742 49.9445 51.742 51.8202C51.742 52.3288 51.6843 52.9179 52.4114 52.9079C53.1811 52.8978 53.0106 52.2558 53.0157 51.785C53.0282 50.4934 53.0182 47.0567 53.0182 46.883C53.1611 46.883 57.4083 46.883 57.5462 46.883C57.5462 47.0919 57.5387 50.8232 57.5462 52.3666C57.5513 53.6179 56.9395 54.5721 55.8714 55.1537C53.5096 56.4453 51.0826 56.3672 48.6856 55.3098C47.3142 54.7055 46.8428 53.4618 46.8353 52.0292C46.8228 49.655 46.8328 47.2808 46.8303 44.9066H46.8328Z" fill="white"/>
<path d="M77.4613 44.9066C77.4613 42.6154 77.4362 40.3243 77.4663 38.0332C77.5014 35.3996 78.567 34.1508 81.1444 33.6649C81.6308 33.5718 82.1323 33.5315 82.6262 33.5214C87.756 33.4006 88.1747 35.5708 88.1747 38.8867V41.4699C87.8488 41.4699 86.8559 41.4774 85.5321 41.4774C84.5192 41.4774 83.9851 41.4648 83.6466 41.4648C83.6466 41.2181 83.6466 40.4477 83.6466 39.5589C83.6466 38.8917 83.6466 38.227 83.6466 37.5598C83.6466 37.0941 83.6868 36.5729 83.0073 36.583C82.3529 36.593 82.3679 37.0966 82.3679 37.5724C82.3705 40.4477 82.3679 43.3204 82.3705 46.1956C82.3705 48.0713 82.3705 49.9445 82.3705 51.8202C82.3705 52.3288 82.3128 52.9179 83.0399 52.9079C83.8096 52.8978 83.6391 52.2558 83.6441 51.785C83.6567 50.4934 83.6466 47.0567 83.6466 46.883C83.7896 46.883 88.0368 46.883 88.1747 46.883C88.1747 47.0919 88.1672 50.8232 88.1747 52.3666C88.1797 53.6179 87.568 54.5721 86.4999 55.1537C84.1381 56.4453 81.711 56.3672 79.3141 55.3098C77.9427 54.7055 77.4713 53.4618 77.4638 52.0292C77.4512 49.655 77.4613 47.2808 77.4588 44.9066H77.4613Z" fill="white"/>
<path d="M67.0888 52.9932C68.874 52.9932 71.301 52.9756 72.9307 52.9756C72.9307 53.6957 72.9708 55.2114 72.9708 55.8509C69.5359 55.8282 65.3212 55.8332 61.8863 55.8509C61.8963 54.2823 61.8863 54.378 61.8863 52.8548C63.3731 50.1684 65.6321 45.9461 67.149 43.2194C68.0341 41.6282 68.2522 39.9212 68.187 38.1487C68.1644 37.5017 67.9488 36.9805 67.1891 36.983C66.3818 36.983 66.284 37.5495 66.2915 38.189C66.299 39.0652 66.3041 40.8175 66.3041 41.6836H61.8888C61.8888 40.5557 61.9114 38.5793 61.9114 37.4236C61.9114 35.777 63.0898 34.3117 64.6643 33.8535C66.4194 33.3449 68.2045 33.355 69.9721 33.8057C71.4013 34.1682 72.2512 35.1602 72.5697 36.5601C73.1313 39.0375 73.2792 41.4369 71.9052 43.8111C70.2229 46.7216 68.7687 49.7655 67.0913 52.9907L67.0888 52.9932Z" fill="white"/>
</g>
<defs>
<clipPath id="clip0_1704_14767">
<rect width="135" height="114" fill="white"/>
</clipPath>
</defs>
</svg>
