<svg width="83" height="71" viewBox="0 0 83 71" fill="none" xmlns="http://www.w3.org/2000/svg">
<g clip-path="url(#clip0_1704_14495)">
<path d="M29.9465 54.1376C28.0983 54.1469 26.25 54.1578 24.4018 54.164C21.5978 54.1733 19.5307 55.3346 18.3468 57.9801C17.6362 59.5683 16.3383 60.0309 15.0496 59.2578C14.211 58.7548 13.801 57.9878 14.0584 57.0299C14.9694 53.6424 17.0612 51.3322 20.4078 50.247C21.4606 49.9055 22.5505 49.7627 23.6665 49.7673C27.3645 49.786 31.0626 49.7797 34.7591 49.772C39.2772 49.7627 43.7937 49.7378 48.3118 49.7254C56.1935 49.7037 64.0751 49.685 71.9568 49.6664C73.1607 49.6633 73.7002 49.328 73.899 48.4399C74.1688 47.2336 73.6108 46.4496 72.3899 46.3596C67.2737 45.9885 62.156 45.6377 57.0413 45.2557C51.2376 44.8226 45.4354 44.3553 39.6317 43.919C35.0535 43.5759 30.4722 43.2685 25.8924 42.927C24.465 42.8199 23.0252 42.7593 21.6795 42.1569C19.802 41.317 18.6042 39.853 17.9337 37.9512C15.8172 31.9446 13.7146 25.9348 11.6598 19.9064C11.4163 19.1923 11.2775 18.919 10.4205 19.0293C6.45576 19.5369 3.2433 18.1676 1.24399 14.6201C-0.591929 11.363 -0.391535 8.0251 1.79276 4.9915C4.07416 1.82594 7.30821 0.708136 11.0386 1.59151C14.6226 2.44073 16.8223 4.85333 17.6393 8.50172C17.7826 9.14135 17.8073 9.78253 17.778 10.4268C17.758 10.8507 17.8705 11.0602 18.3283 11.009C18.5827 10.9811 18.8416 11.0044 19.0975 11.0044C32.732 11.0106 46.368 11.0183 60.0025 11.023C62.3903 11.023 64.778 11.0121 67.1658 11.0028C68.678 10.9966 69.384 10.357 69.5413 8.84948C69.6831 7.48638 69.922 6.14501 70.2735 4.81917C71.0766 1.79023 72.7075 0.411608 75.8059 0.118184C77.6772 -0.0588017 79.5424 -0.016884 81.4107 0.111974C82.2616 0.170969 82.8382 0.722109 82.9568 1.56667C83.1326 2.81178 82.7549 3.68429 81.8809 4.05844C81.2982 4.3084 80.6801 4.30995 80.065 4.31461C78.9613 4.32392 77.8576 4.28822 76.76 4.44502C75.3434 4.64995 74.6698 5.23835 74.326 6.64802C73.9206 8.3061 73.805 10.0139 73.5784 11.6999C72.7892 17.5839 72.0292 23.471 71.2801 29.3612C70.8376 32.8419 70.4291 36.3288 70.016 39.8127C69.8495 41.2115 70.2365 41.6959 71.6639 41.8232C72.4824 41.8961 73.2963 41.9691 74.0964 42.1694C77.0406 42.9068 78.989 45.7588 78.6484 48.8389C78.3401 51.6381 75.7365 54.0895 72.857 54.105C63.2289 54.1547 53.5992 54.1438 43.971 54.1547C43.9201 54.1547 43.8693 54.1376 43.8199 54.1299C43.635 53.9964 43.4238 54.0507 43.2234 54.0507C38.9966 54.0476 34.7699 54.0476 30.5416 54.0507C30.3427 54.0507 30.13 53.9917 29.9481 54.1361L29.9465 54.1376Z" fill="#FECC05"/>
<path d="M35.0751 70.2963C31.3508 70.2839 28.4266 67.3404 28.4359 63.6113C28.4451 59.952 31.4109 57.0302 35.1044 57.041C38.8332 57.0519 41.6727 59.9598 41.6202 63.7122C41.5678 67.4522 38.7299 70.3088 35.0735 70.2963H35.0751Z" fill="#FECC05"/>
<path d="M58.3408 63.5831C58.3346 67.424 55.5183 70.3055 51.7802 70.2977C48.0775 70.2899 45.1657 67.3806 45.1687 63.6934C45.1734 59.9673 48.113 57.0331 51.8326 57.044C55.4366 57.0533 58.3469 59.9782 58.3408 63.5847V63.5831Z" fill="#FECC05"/>
<path d="M29.9465 54.1376C30.1423 53.8923 30.4167 53.9777 30.6618 53.9777C34.8069 53.9731 38.9535 53.9731 43.0985 53.9777C43.3436 53.9777 43.618 53.8923 43.8169 54.1314C42.949 54.1485 42.0827 54.1842 41.2148 54.1811C37.4582 54.1718 33.7016 54.1532 29.945 54.1361L29.9465 54.1376Z" fill="#FEC700"/>
<mask id="mask0_1704_14495" style="mask-type:luminance" maskUnits="userSpaceOnUse" x="-1" y="-1" width="84" height="61">
<path d="M29.9465 54.0751C28.0983 54.0844 26.25 54.0953 24.4018 54.1015C21.5978 54.1108 19.5307 55.2721 18.3468 57.9176C17.6362 59.5058 16.3383 59.9684 15.0496 59.1953C14.211 58.6923 13.801 57.9253 14.0584 56.9674C14.9694 53.5799 17.0612 51.2697 20.4078 50.1845C21.4606 49.843 22.5505 49.7002 23.6665 49.7048C27.3645 49.7235 31.0626 49.7172 34.7591 49.7095C39.2772 49.7002 43.7937 49.6753 48.3118 49.6629C56.1935 49.6412 64.0751 49.6225 71.9568 49.6039C73.1607 49.6008 73.7002 49.2655 73.899 48.3774C74.1688 47.1711 73.6108 46.3871 72.3899 46.2971C67.2737 45.926 62.156 45.5752 57.0413 45.1932C51.2376 44.7601 45.4354 44.2928 39.6317 43.8565C35.0535 43.5134 30.4722 43.206 25.8924 42.8645C24.465 42.7574 23.0252 42.6968 21.6795 42.0944C19.802 41.2545 18.6042 39.7905 17.9337 37.8887C15.8172 31.8821 13.7146 25.8723 11.6598 19.8439C11.4163 19.1298 11.2775 18.8565 10.4205 18.9668C6.45576 19.4744 3.2433 18.1051 1.24398 14.5576C-0.588847 11.302 -0.389995 7.96415 1.7943 4.93055C4.07416 1.76344 7.30821 0.645636 11.0386 1.52901C14.6226 2.37823 16.8223 4.79083 17.6393 8.43922C17.7826 9.07885 17.8073 9.72003 17.778 10.3643C17.758 10.7882 17.8705 10.9977 18.3283 10.9465C18.5827 10.9186 18.8416 10.9419 19.0975 10.9419C32.732 10.9481 46.368 10.9558 60.0025 10.9605C62.3903 10.9605 64.778 10.9496 67.1658 10.9403C68.678 10.9341 69.384 10.2945 69.5412 8.78698C69.6831 7.42388 69.922 6.08251 70.2735 4.75667C71.0766 1.72773 72.7075 0.349108 75.8059 0.055684C77.6772 -0.121302 79.5424 -0.079384 81.4107 0.049474C82.2616 0.108469 82.8381 0.659609 82.9568 1.50417C83.1326 2.74928 82.7549 3.62179 81.8809 3.99594C81.2982 4.2459 80.6801 4.24745 80.065 4.25211C78.9613 4.26142 77.8576 4.22572 76.76 4.38252C75.3434 4.58745 74.6698 5.17585 74.326 6.58552C73.9206 8.2436 73.805 9.95136 73.5784 11.6374C72.7892 17.5214 72.0292 23.4085 71.28 29.2987C70.8376 32.7794 70.4291 36.2663 70.016 39.7502C69.8495 41.149 70.2365 41.6333 71.6639 41.7607C72.4824 41.8336 73.2963 41.9066 74.0964 42.1069C77.0406 42.8443 78.989 45.6963 78.6484 48.7764C78.3401 51.5756 75.7365 54.027 72.857 54.0425C63.2288 54.0922 53.5992 54.0813 43.971 54.0922C43.9201 54.0922 43.8693 54.0751 43.8199 54.0674C43.635 53.9339 43.4238 53.9882 43.2234 53.9882C38.9966 53.9851 34.7699 53.9851 30.5415 53.9882C30.3427 53.9882 30.13 53.9292 29.9481 54.0736L29.9465 54.0751Z" fill="white"/>
</mask>
<g mask="url(#mask0_1704_14495)">
<path d="M35.0242 15.3059C35.7581 15.3059 36.353 14.7068 36.353 13.9677C36.353 13.2286 35.7581 12.6294 35.0242 12.6294C34.2903 12.6294 33.6954 13.2286 33.6954 13.9677C33.6954 14.7068 34.2903 15.3059 35.0242 15.3059Z" fill="#0A0A0A"/>
<path d="M39.5099 15.3059C40.2438 15.3059 40.8387 14.7068 40.8387 13.9677C40.8387 13.2286 40.2438 12.6294 39.5099 12.6294C38.7761 12.6294 38.1812 13.2286 38.1812 13.9677C38.1812 14.7068 38.7761 15.3059 39.5099 15.3059Z" fill="#0A0A0A"/>
<path d="M14.8723 13.0454H31.7177C32.2279 13.0454 32.6426 13.463 32.6426 13.9769C32.6426 14.4908 32.2279 14.9084 31.7177 14.9084H14.8723V13.0454Z" fill="#0A0A0A"/>
<path d="M53.4928 40.6242C54.0036 40.6242 54.4177 40.2072 54.4177 39.6927C54.4177 39.1783 54.0036 38.7612 53.4928 38.7612C52.982 38.7612 52.5679 39.1783 52.5679 39.6927C52.5679 40.2072 52.982 40.6242 53.4928 40.6242Z" fill="#0A0A0A"/>
<path d="M72.763 40.624H55.9176C55.4073 40.624 54.9927 40.2064 54.9927 39.6925C54.9927 39.1786 55.4073 38.761 55.9176 38.761H72.763V40.624Z" fill="#0A0A0A"/>
<path d="M70.386 37.6216H62.1745C61.6642 37.6216 61.2496 37.204 61.2496 36.6901C61.2496 36.1762 61.6642 35.7586 62.1745 35.7586H70.386V37.6216Z" fill="#0A0A0A"/>
<path d="M11.5966 16.1006H23.5416C24.0519 16.1006 24.4665 16.5182 24.4665 17.0321C24.4665 17.546 24.0519 17.9636 23.5416 17.9636H11.5966V16.1006Z" fill="#0A0A0A"/>
<path d="M10.4837 21.2878H18.9773C19.4875 21.2878 19.9022 20.8702 19.9022 20.3563C19.9022 19.8424 19.4875 19.4248 18.9773 19.4248H10.4837V21.2878Z" fill="#0A0A0A"/>
</g>
<path d="M8.95452 19.3271C13.9 19.3271 17.909 15.2893 17.909 10.3085C17.909 5.32776 13.9 1.29004 8.95452 1.29004C4.00907 1.29004 0 5.32776 0 10.3085C0 15.2893 4.00907 19.3271 8.95452 19.3271Z" fill="#FECD05"/>
<path d="M13.6129 9.307H9.94724V5.61514C9.94724 5.06244 9.50175 4.61377 8.95298 4.61377C8.40421 4.61377 7.95872 5.06244 7.95872 5.61514V9.307H4.29305C3.74428 9.307 3.29879 9.75567 3.29879 10.3084C3.29879 10.8611 3.74428 11.3097 4.29305 11.3097H7.95872V15.0016C7.95872 15.5543 8.40421 16.003 8.95298 16.003C9.50175 16.003 9.94724 15.5543 9.94724 15.0016V11.3097H13.6129C14.1617 11.3097 14.6072 10.8611 14.6072 10.3084C14.6072 9.75567 14.1617 9.307 13.6129 9.307Z" fill="#0A0A0A"/>
<path d="M28.7935 27.6904C28.7935 26.2776 28.7781 24.8648 28.7966 23.452C28.8182 21.8281 29.4733 21.0581 31.0579 20.7584C31.357 20.701 31.6653 20.6762 31.969 20.67C35.1229 20.5954 35.3803 21.9337 35.3803 23.9783V25.5712C35.1799 25.5712 34.5695 25.5759 33.7556 25.5759C33.1328 25.5759 32.8045 25.5681 32.5964 25.5681C32.5964 25.416 32.5964 24.9409 32.5964 24.3929C32.5964 23.9814 32.5964 23.5716 32.5964 23.1602C32.5964 22.873 32.621 22.5516 32.2033 22.5578C31.8009 22.564 31.8102 22.8745 31.8102 23.1679C31.8117 24.9409 31.8102 26.7123 31.8117 28.4853C31.8117 29.6419 31.8117 30.797 31.8117 31.9536C31.8117 32.2672 31.7763 32.6305 32.2233 32.6243C32.6965 32.618 32.5917 32.2221 32.5948 31.9318C32.6025 31.1354 32.5964 29.0162 32.5964 28.9091C32.6842 28.9091 35.2955 28.9091 35.3803 28.9091C35.3803 29.038 35.3757 31.3388 35.3803 32.2905C35.3834 33.0621 35.0072 33.6505 34.3506 34.0091C32.8985 34.8055 31.4063 34.7574 29.9327 34.1053C29.0895 33.7327 28.7997 32.9658 28.795 32.0824C28.7873 30.6184 28.7935 29.1544 28.792 27.6904H28.7935Z" fill="black"/>
<path d="M47.6243 27.6904C47.6243 26.2776 47.6089 24.8648 47.6274 23.452C47.649 21.8281 48.3041 21.0581 49.8888 20.7584C50.1878 20.701 50.4961 20.6762 50.7998 20.67C53.9537 20.5954 54.2111 21.9337 54.2111 23.9783V25.5712C54.0107 25.5712 53.4003 25.5759 52.5864 25.5759C51.9636 25.5759 51.6353 25.5681 51.4272 25.5681C51.4272 25.416 51.4272 24.9409 51.4272 24.3929C51.4272 23.9814 51.4272 23.5716 51.4272 23.1602C51.4272 22.873 51.4519 22.5516 51.0341 22.5578C50.6318 22.564 50.641 22.8745 50.641 23.1679C50.6426 24.9409 50.641 26.7123 50.6426 28.4853C50.6426 29.6419 50.6426 30.797 50.6426 31.9536C50.6426 32.2672 50.6071 32.6305 51.0542 32.6243C51.5274 32.618 51.4226 32.2221 51.4257 31.9318C51.4334 31.1354 51.4272 29.0162 51.4272 28.9091C51.5151 28.9091 54.1264 28.9091 54.2111 28.9091C54.2111 29.038 54.2065 31.3388 54.2111 32.2905C54.2142 33.0621 53.8381 33.6505 53.1814 34.0091C51.7293 34.8055 50.2372 34.7574 48.7635 34.1053C47.9203 33.7327 47.6305 32.9658 47.6259 32.0824C47.6182 30.6184 47.6243 29.1544 47.6228 27.6904H47.6243Z" fill="black"/>
<path d="M41.2472 32.677C42.3447 32.677 43.8369 32.6661 44.8389 32.6661C44.8389 33.1101 44.8635 34.0447 44.8635 34.4391C42.7517 34.4251 40.1604 34.4282 38.0486 34.4391C38.0548 33.4719 38.0486 33.5309 38.0486 32.5916C38.9627 30.9351 40.3516 28.3315 41.2842 26.6502C41.8283 25.669 41.9624 24.6164 41.9224 23.5234C41.9085 23.1244 41.7759 22.803 41.3089 22.8046C40.8125 22.8046 40.7524 23.1539 40.757 23.5482C40.7616 24.0885 40.7647 25.1691 40.7647 25.7031H38.0501C38.0501 25.0076 38.064 23.7889 38.064 23.0763C38.064 22.0609 38.7885 21.1574 39.7566 20.8748C40.8356 20.5612 41.9332 20.5674 43.0199 20.8453C43.8986 21.0689 44.4211 21.6806 44.6169 22.5438C44.9622 24.0714 45.0531 25.551 44.2084 27.015C43.1741 28.8097 42.28 30.6867 41.2487 32.6754L41.2472 32.677Z" fill="black"/>
</g>
<defs>
<clipPath id="clip0_1704_14495">
<rect width="83" height="70.2959" fill="white"/>
</clipPath>
</defs>
</svg>
