<svg width="17" height="16" viewBox="0 0 17 16" fill="none" xmlns="http://www.w3.org/2000/svg">
<path d="M11.4818 9.92809C14.1965 9.92809 16.3972 7.88001 16.3972 5.35357C16.3972 2.82713 14.1965 0.779053 11.4818 0.779053C8.76711 0.779053 6.56641 2.82713 6.56641 5.35357C6.56641 7.88001 8.76711 9.92809 11.4818 9.92809Z" fill="#FFCD05"/>
<path d="M0.856647 13.5009L4.49147 9.86612C4.80001 9.55758 5.30297 9.55758 5.6115 9.86612L6.4864 8.99122C4.85918 6.81878 5.02824 3.72496 7.00204 1.75116C9.17025 -0.417054 12.6825 -0.417054 14.8465 1.75116C17.0147 3.91938 17.0147 7.43163 14.8465 9.59562C12.8727 11.5694 9.77887 11.7385 7.60643 10.1113L6.73154 10.9862C7.04008 11.2947 7.04008 11.7976 6.73154 12.1062L3.09671 15.741C2.78818 16.0495 2.28522 16.0495 1.97668 15.741L0.856647 14.621C0.54811 14.3124 0.54811 13.8095 0.856647 13.5009ZM7.72477 7.98953L8.59967 8.86443C9.27169 9.35471 10.0747 9.62943 10.92 9.62943C11.9851 9.63366 12.9784 9.22368 13.7265 8.47136C14.4746 7.72326 14.8888 6.7258 14.8888 5.66916C14.8888 4.61253 14.4746 3.61507 13.7265 2.86697C12.9784 2.11887 11.9809 1.70467 10.9243 1.70467C9.86763 1.70467 8.87017 2.11887 8.12207 2.86697C7.37397 3.61507 6.95977 4.61253 6.95977 5.66916C6.95977 6.5187 7.2345 7.31751 7.72477 7.98953Z" fill="#292929"/>
</svg>
