<svg width="24" height="24" viewBox="0 0 24 24" fill="none" xmlns="http://www.w3.org/2000/svg">
<path fill-rule="evenodd" clip-rule="evenodd" d="M10.5 12C10.5 11.1716 11.1715 10.5 12 10.5C12.8284 10.5 13.5001 11.1716 13.5001 12C13.5001 12.8284 12.8285 13.5 12.0001 13.5C11.1716 13.5 10.5 12.8284 10.5 12Z" fill="#414141" stroke="#414141" stroke-width="0.2" stroke-linecap="round" stroke-linejoin="round"/>
<path fill-rule="evenodd" clip-rule="evenodd" d="M10.5 18C10.5 17.1716 11.1716 16.5 12 16.5C12.8284 16.5 13.5001 17.1716 13.5001 18C13.5001 18.8284 12.8285 19.5 12.0001 19.5C11.1717 19.5 10.5 18.8284 10.5 18Z" fill="#414141" stroke="#414141" stroke-width="0.2" stroke-linecap="round" stroke-linejoin="round"/>
<path fill-rule="evenodd" clip-rule="evenodd" d="M10.5 6C10.5 5.17157 11.1716 4.5 12 4.5C12.8284 4.5 13.5001 5.17157 13.5001 6C13.5001 6.82843 12.8285 7.5 12.0001 7.5C11.1717 7.5 10.5 6.82843 10.5 6Z" fill="#414141" stroke="#414141" stroke-width="0.2" stroke-linecap="round" stroke-linejoin="round"/>
</svg>
