<svg width="16" height="20" viewBox="0 0 16 20" fill="none" xmlns="http://www.w3.org/2000/svg">
<path d="M15.3563 1.27031C15.2784 1.21824 13.4291 0 11.5156 0C9.95922 0 8.81883 0.633438 7.71562 1.2457C6.69824 1.81047 5.73691 2.34375 4.48438 2.34375C3.29562 2.34375 2.07324 1.72434 1.55469 1.42715V0H0.382812V20H1.55469V12.1235C2.28832 12.4789 3.37 12.8906 4.48438 12.8906C6.04078 12.8906 7.18117 12.2572 8.28438 11.6449C9.30176 11.0802 10.2631 10.5469 11.5156 10.5469C13.0692 10.5469 14.6908 11.61 14.7068 11.6209L15.6172 12.2246V1.44426L15.3563 1.27031Z" fill="#EC1A1A"/>
</svg>
