<svg width="24" height="24" viewBox="0 0 24 24" fill="none" xmlns="http://www.w3.org/2000/svg">
<path d="M8 16H15.2632C19.7508 16 20.4333 13.1808 21.261 9.06908C21.4998 7.88311 21.6192 7.29013 21.3321 6.89507C21.164 6.66386 20.9059 6.56796 20.5 6.52819M1.5 6.5H7.5" stroke="#414141" stroke-width="1.5" stroke-linecap="round"/>
<path d="M11.015 2.38661C12.0876 1.74692 13.0238 2.00471 13.5863 2.41534C13.8169 2.58371 13.9322 2.66789 14 2.66789C14.0678 2.66789 14.1831 2.58371 14.4137 2.41534C14.9762 2.00471 15.9124 1.74692 16.985 2.38661C18.3928 3.22614 18.7113 5.99578 15.4642 8.33242C14.8457 8.77747 14.5365 9 14 9C13.4635 9 13.1543 8.77747 12.5358 8.33242C9.28868 5.99578 9.60722 3.22614 11.015 2.38661Z" stroke="#414141" stroke-width="1.5" stroke-linecap="round"/>
<path d="M8 16L5.37873 3.51493C5.15615 2.62459 4.35618 2 3.43845 2H2.5" stroke="#414141" stroke-width="1.5" stroke-linecap="round"/>
<path d="M8.88 16H8.46857C7.10522 16 6 17.1513 6 18.5714C6 18.8081 6.1842 19 6.41143 19H17.5" stroke="#414141" stroke-width="1.5" stroke-linecap="round" stroke-linejoin="round"/>
<path d="M10.5 22C11.3284 22 12 21.3284 12 20.5C12 19.6716 11.3284 19 10.5 19C9.67157 19 9 19.6716 9 20.5C9 21.3284 9.67157 22 10.5 22Z" stroke="#414141" stroke-width="1.5"/>
<path d="M17.5 22C18.3284 22 19 21.3284 19 20.5C19 19.6716 18.3284 19 17.5 19C16.6716 19 16 19.6716 16 20.5C16 21.3284 16.6716 22 17.5 22Z" stroke="#414141" stroke-width="1.5"/>
<path d="M5 12.5H2" stroke="#414141" stroke-width="1.5" stroke-linecap="round" stroke-linejoin="round"/>
<path d="M5 9.5H2" stroke="#414141" stroke-width="1.5" stroke-linecap="round" stroke-linejoin="round"/>
</svg>
