<svg width="20" height="21" viewBox="0 0 20 21" fill="none" xmlns="http://www.w3.org/2000/svg">
<path d="M11.6665 18.8332V7.1665C11.6665 4.80948 11.6665 3.63097 10.9343 2.89874C10.202 2.1665 9.0235 2.1665 6.6665 2.1665C4.30948 2.1665 3.13097 2.1665 2.39874 2.89874C1.6665 3.63097 1.6665 4.80948 1.6665 7.1665V13.8332C1.6665 16.1902 1.6665 17.3687 2.39874 18.1009C3.13097 18.8332 4.30948 18.8332 6.6665 18.8332H11.6665Z" stroke="#414141" stroke-width="1.5" stroke-linecap="round" stroke-linejoin="round"/>
<path d="M5.41683 9.66683H4.5835M8.75016 9.66683H7.91683M5.41683 6.3335H4.5835M5.41683 13.0002H4.5835M8.75016 6.3335H7.91683M8.75016 13.0002H7.91683" stroke="#414141" stroke-width="1.5" stroke-linecap="round" stroke-linejoin="round"/>
<path d="M15.4168 12.9998H14.5835M15.4168 9.6665H14.5835" stroke="#414141" stroke-width="1.5" stroke-linecap="round" stroke-linejoin="round"/>
<path d="M14.9998 7.1665H11.6665V18.8332H14.9998C16.5712 18.8332 17.3568 18.8332 17.845 18.345C18.3332 17.8568 18.3332 17.0712 18.3332 15.4998V10.4998C18.3332 8.9285 18.3332 8.14281 17.845 7.65466C17.3568 7.1665 16.5712 7.1665 14.9998 7.1665Z" stroke="#414141" stroke-width="1.5" stroke-linecap="round" stroke-linejoin="round"/>
</svg>
