<svg width="21" height="20" viewBox="0 0 21 20" fill="none" xmlns="http://www.w3.org/2000/svg">
<path d="M8.41667 14.5833C8.41667 15.7339 7.48392 16.6667 6.33333 16.6667C5.18274 16.6667 4.25 15.7339 4.25 14.5833C4.25 13.4327 5.18274 12.5 6.33333 12.5C7.48392 12.5 8.41667 13.4327 8.41667 14.5833Z" stroke="#292929" stroke-width="1.25"/>
<path d="M16.7507 14.5833C16.7507 15.7339 15.8179 16.6667 14.6673 16.6667C13.5167 16.6667 12.584 15.7339 12.584 14.5833C12.584 13.4327 13.5167 12.5 14.6673 12.5C15.8179 12.5 16.7507 13.4327 16.7507 14.5833Z" stroke="#292929" stroke-width="1.25"/>
<path d="M12.5827 14.5833H8.41602M16.7493 14.5833H18.8327V10.8333C18.8327 7.84171 16.3327 5.41659 12.9993 5.41659M2.16602 3.33325H12.166C12.6263 3.33325 12.9993 3.70635 12.9993 4.16659V13.3333M4.24935 14.5737L3.00319 14.5794C2.54146 14.5815 2.16602 14.2078 2.16602 13.7461V10.8333" stroke="#292929" stroke-width="1.25" stroke-linecap="round" stroke-linejoin="round"/>
<path d="M2.16602 5.83325H7.16602M2.16602 8.33325H5.49935" stroke="#292929" stroke-width="1.25" stroke-linecap="round" stroke-linejoin="round"/>
</svg>
