<svg width="24" height="24" viewBox="0 0 24 24" fill="none" xmlns="http://www.w3.org/2000/svg">
<path d="M16.98 22.6668C15.8553 22.6668 14.7558 22.3333 13.8207 21.7084C12.8855 21.0836 12.1566 20.1954 11.7262 19.1563C11.2958 18.1172 11.1832 16.9738 11.4026 15.8707C11.622 14.7676 12.1636 13.7543 12.9589 12.959C13.7542 12.1638 14.7675 11.6221 15.8706 11.4027C16.9737 11.1833 18.1171 11.2959 19.1562 11.7263C20.1953 12.1567 21.0834 12.8856 21.7083 13.8208C22.3332 14.756 22.6667 15.8554 22.6667 16.9801C22.6649 18.4878 22.0652 19.9332 20.9991 20.9993C19.9331 22.0653 18.4877 22.665 16.98 22.6668ZM16.98 12.7135C16.1361 12.7135 15.3112 12.9637 14.6096 13.4325C13.9079 13.9013 13.3611 14.5677 13.0381 15.3473C12.7152 16.127 12.6307 16.9849 12.7953 17.8125C12.96 18.6402 13.3663 19.4004 13.963 19.9971C14.5597 20.5938 15.32 21.0002 16.1476 21.1648C16.9753 21.3294 17.8332 21.2449 18.6128 20.922C19.3924 20.5991 20.0588 20.0522 20.5276 19.3506C20.9964 18.6489 21.2467 17.824 21.2467 16.9801C21.2449 15.8491 20.7948 14.7649 19.995 13.9651C19.1953 13.1653 18.1111 12.7152 16.98 12.7135Z" fill="#B8B8B8"/>
<path fill-rule="evenodd" clip-rule="evenodd" d="M5.60005 17.6865C5.74114 17.6865 5.87905 17.7284 5.99636 17.8067C6.11367 17.8851 6.2051 17.9965 6.25909 18.1269C6.31308 18.2572 6.3272 18.4006 6.29968 18.539C6.27215 18.6774 6.20422 18.8045 6.10445 18.9043C6.00469 19.004 5.87759 19.072 5.73922 19.0995C5.60084 19.127 5.45742 19.1129 5.32707 19.0589C5.19673 19.0049 5.08532 18.9135 5.00694 18.7962C4.92855 18.6789 4.88672 18.5409 4.88672 18.3999C4.88672 18.2107 4.96187 18.0292 5.09565 17.8955C5.22943 17.7617 5.41086 17.6865 5.60005 17.6865Z" fill="#B8B8B8"/>
<path fill-rule="evenodd" clip-rule="evenodd" d="M8.44661 17.6865C8.58769 17.6865 8.72561 17.7284 8.84292 17.8067C8.96022 17.8851 9.05165 17.9965 9.10564 18.1269C9.15963 18.2572 9.17376 18.4006 9.14624 18.539C9.11871 18.6774 9.05077 18.8045 8.95101 18.9043C8.85125 19.004 8.72415 19.072 8.58577 19.0995C8.4474 19.127 8.30397 19.1129 8.17363 19.0589C8.04328 19.0049 7.93188 18.9135 7.85349 18.7962C7.77511 18.6789 7.73328 18.5409 7.73328 18.3999C7.73328 18.2107 7.80843 18.0292 7.94221 17.8955C8.07598 17.7617 8.25742 17.6865 8.44661 17.6865Z" fill="#B8B8B8"/>
<path d="M21.6267 2.37352C21.2975 2.04242 20.9058 1.77999 20.4743 1.60146C20.0429 1.42293 19.5803 1.33186 19.1134 1.33352H4.88671C3.9443 1.33352 3.0405 1.70789 2.37412 2.37427C1.70774 3.04064 1.33337 3.94445 1.33337 4.88685V19.1135C1.33337 20.0559 1.70774 20.9597 2.37412 21.6261C3.0405 22.2925 3.9443 22.6669 4.88671 22.6669H10.5734V21.2469H4.88671C4.32091 21.2469 3.77829 21.0221 3.37821 20.622C2.97814 20.2219 2.75337 19.6793 2.75337 19.1135V4.88685C2.75337 4.32106 2.97814 3.77843 3.37821 3.37836C3.77829 2.97828 4.32091 2.75352 4.88671 2.75352H8.44004V8.44019C8.44379 8.54646 8.47126 8.65056 8.52044 8.74485C8.56961 8.83915 8.63924 8.92125 8.72424 8.98516C8.80924 9.04907 8.90746 9.09317 9.0117 9.11422C9.11594 9.13528 9.22357 9.13276 9.32671 9.10685L11.9934 8.44019L14.66 9.10685C14.7653 9.13187 14.8748 9.13349 14.9808 9.1116C15.0867 9.08972 15.1866 9.04486 15.2734 8.98019C15.3583 8.91361 15.4271 8.82861 15.4744 8.73161C15.5218 8.63461 15.5465 8.52813 15.5467 8.42019V2.75352H19.1C19.6658 2.75352 20.2085 2.97828 20.6085 3.37836C21.0086 3.77843 21.2334 4.32106 21.2334 4.88685V10.5735H22.6667V4.88685C22.6684 4.41993 22.5773 3.95733 22.3988 3.52589C22.2202 3.09444 21.9578 2.70274 21.6267 2.37352ZM14.1334 7.53352L12.1734 7.04019C12.0596 7.01168 11.9405 7.01168 11.8267 7.04019L9.86671 7.53352V2.75352H14.1334V7.53352Z" fill="#B8B8B8"/>
<path d="M16.62 18.7534C16.5271 18.7535 16.4352 18.7353 16.3494 18.6998C16.2636 18.6644 16.1856 18.6123 16.12 18.5467L14.6666 17.1267L15.6733 16.1201L16.5933 17.0401L18.2266 15.4067L19.2333 16.4134L17.1 18.5467C16.9722 18.6744 16.8005 18.7484 16.62 18.7534Z" fill="#B8B8B8"/>
</svg>
