<svg width="18" height="18" viewBox="0 0 18 18" fill="none" xmlns="http://www.w3.org/2000/svg">
<path d="M5.25 8.0625H2.25C1.90203 8.0621 1.56842 7.9237 1.32236 7.67764C1.07631 7.43158 0.937897 7.09797 0.9375 6.75V3.75C0.937897 3.40203 1.07631 3.06842 1.32236 2.82236C1.56842 2.57631 1.90203 2.4379 2.25 2.4375H5.25C5.59797 2.4379 5.93158 2.57631 6.17764 2.82236C6.4237 3.06842 6.5621 3.40203 6.5625 3.75V6.75C6.5621 7.09797 6.4237 7.43158 6.17764 7.67764C5.93158 7.9237 5.59797 8.0621 5.25 8.0625ZM2.25 3.5625C2.20027 3.5625 2.15258 3.58225 2.11742 3.61742C2.08225 3.65258 2.0625 3.70027 2.0625 3.75V6.75C2.0625 6.79973 2.08225 6.84742 2.11742 6.88258C2.15258 6.91775 2.20027 6.9375 2.25 6.9375H5.25C5.29973 6.9375 5.34742 6.91775 5.38258 6.88258C5.41775 6.84742 5.4375 6.79973 5.4375 6.75V3.75C5.4375 3.70027 5.41775 3.65258 5.38258 3.61742C5.34742 3.58225 5.29973 3.5625 5.25 3.5625H2.25Z" fill="#292929"/>
<path d="M5.25 15.5625H2.25C1.90203 15.5621 1.56842 15.4237 1.32236 15.1776C1.07631 14.9316 0.937897 14.598 0.9375 14.25V11.25C0.937897 10.902 1.07631 10.5684 1.32236 10.3224C1.56842 10.0763 1.90203 9.9379 2.25 9.9375H5.25C5.59797 9.9379 5.93158 10.0763 6.17764 10.3224C6.4237 10.5684 6.5621 10.902 6.5625 11.25V14.25C6.5621 14.598 6.4237 14.9316 6.17764 15.1776C5.93158 15.4237 5.59797 15.5621 5.25 15.5625ZM2.25 11.0625C2.20027 11.0625 2.15258 11.0823 2.11742 11.1174C2.08225 11.1526 2.0625 11.2003 2.0625 11.25V14.25C2.0625 14.2997 2.08225 14.3474 2.11742 14.3826C2.15258 14.4177 2.20027 14.4375 2.25 14.4375H5.25C5.29973 14.4375 5.34742 14.4177 5.38258 14.3826C5.41775 14.3474 5.4375 14.2997 5.4375 14.25V11.25C5.4375 11.2003 5.41775 11.1526 5.38258 11.1174C5.34742 11.0823 5.29973 11.0625 5.25 11.0625H2.25Z" fill="#292929"/>
<path d="M16.5 4.3125H9C8.85082 4.3125 8.70774 4.25324 8.60225 4.14775C8.49676 4.04226 8.4375 3.89918 8.4375 3.75C8.4375 3.60082 8.49676 3.45774 8.60225 3.35225C8.70774 3.24676 8.85082 3.1875 9 3.1875H16.5C16.6492 3.1875 16.7923 3.24676 16.8977 3.35225C17.0032 3.45774 17.0625 3.60082 17.0625 3.75C17.0625 3.89918 17.0032 4.04226 16.8977 4.14775C16.7923 4.25324 16.6492 4.3125 16.5 4.3125Z" fill="#292929"/>
<path d="M13.5 7.3125H9C8.85082 7.3125 8.70774 7.25324 8.60225 7.14775C8.49676 7.04226 8.4375 6.89918 8.4375 6.75C8.4375 6.60082 8.49676 6.45774 8.60225 6.35225C8.70774 6.24676 8.85082 6.1875 9 6.1875H13.5C13.6492 6.1875 13.7923 6.24676 13.8977 6.35225C14.0032 6.45774 14.0625 6.60082 14.0625 6.75C14.0625 6.89918 14.0032 7.04226 13.8977 7.14775C13.7923 7.25324 13.6492 7.3125 13.5 7.3125Z" fill="#292929"/>
<path d="M16.5 11.8125H9C8.85082 11.8125 8.70774 11.7532 8.60225 11.6477C8.49676 11.5423 8.4375 11.3992 8.4375 11.25C8.4375 11.1008 8.49676 10.9577 8.60225 10.8523C8.70774 10.7468 8.85082 10.6875 9 10.6875H16.5C16.6492 10.6875 16.7923 10.7468 16.8977 10.8523C17.0032 10.9577 17.0625 11.1008 17.0625 11.25C17.0625 11.3992 17.0032 11.5423 16.8977 11.6477C16.7923 11.7532 16.6492 11.8125 16.5 11.8125Z" fill="#292929"/>
<path d="M13.5 14.8125H9C8.85082 14.8125 8.70774 14.7532 8.60225 14.6477C8.49676 14.5423 8.4375 14.3992 8.4375 14.25C8.4375 14.1008 8.49676 13.9577 8.60225 13.8523C8.70774 13.7468 8.85082 13.6875 9 13.6875H13.5C13.6492 13.6875 13.7923 13.7468 13.8977 13.8523C14.0032 13.9577 14.0625 14.1008 14.0625 14.25C14.0625 14.3992 14.0032 14.5423 13.8977 14.6477C13.7923 14.7532 13.6492 14.8125 13.5 14.8125Z" fill="#292929"/>
</svg>
