<svg width="20" height="20" viewBox="0 0 20 20" fill="none" xmlns="http://www.w3.org/2000/svg">
<path d="M5.5689 5.59355L4.46414 4.48875C3.85394 3.87859 2.86464 3.87855 2.25441 4.48875L1.70058 5.04261C0.678981 6.06414 0.488668 7.6455 1.24039 8.87925C2.15961 10.3877 3.60578 12.4693 5.56898 14.4325C7.53289 16.3964 9.61523 17.8429 11.1238 18.762C12.357 19.5134 13.9378 19.3219 14.9588 18.3009L15.5127 17.747C16.1229 17.1368 16.1229 16.1475 15.5127 15.5373L14.4078 14.4325C13.6318 13.6564 12.8824 13.9322 12.2753 14.4014C11.6817 14.8602 10.8759 14.9028 10.286 14.4395C9.46406 13.794 8.61074 13.0548 7.77867 12.2228C6.94402 11.3881 6.20281 10.532 5.55586 9.70769C5.09675 9.12277 5.13101 8.32281 5.58332 7.73261C6.05589 7.11605 6.33535 6.36 5.5689 5.59355Z" stroke="#292929" stroke-width="1.2" stroke-miterlimit="10" stroke-linecap="round" stroke-linejoin="round"/>
<path d="M6.38086 2.61371C7.73961 1.47016 9.49367 0.781172 11.4086 0.781172C15.7233 0.781172 19.2211 4.27895 19.2211 8.59367C19.2211 10.5089 18.5319 12.2632 17.388 13.6221" stroke="#292929" stroke-width="1.2" stroke-miterlimit="10" stroke-linecap="round" stroke-linejoin="round"/>
<path d="M11.4082 5.46851V8.59351L12.9707 10.156" stroke="#292929" stroke-width="1.2" stroke-miterlimit="10" stroke-linecap="round" stroke-linejoin="round"/>
</svg>
