<svg width="19" height="20" viewBox="0 0 19 20" fill="none" xmlns="http://www.w3.org/2000/svg">
<path d="M9.5 10.625C8.75832 10.625 8.0333 10.4051 7.41661 9.99301C6.79993 9.58096 6.31928 8.99529 6.03545 8.31007C5.75162 7.62484 5.67736 6.87084 5.82206 6.14341C5.96675 5.41599 6.3239 4.7478 6.84835 4.22335C7.3728 3.6989 8.04098 3.34175 8.76841 3.19706C9.49584 3.05236 10.2498 3.12662 10.9351 3.41045C11.6203 3.69428 12.206 4.17493 12.618 4.79161C13.0301 5.4083 13.25 6.13332 13.25 6.875C13.25 7.86957 12.8549 8.82339 12.1517 9.52665C11.4484 10.2299 10.4946 10.625 9.5 10.625ZM9.5 4.375C9.00555 4.375 8.5222 4.52162 8.11108 4.79633C7.69995 5.07103 7.37952 5.46148 7.1903 5.91829C7.00108 6.37511 6.95158 6.87778 7.04804 7.36273C7.1445 7.84768 7.3826 8.29314 7.73224 8.64277C8.08187 8.9924 8.52732 9.2305 9.01228 9.32697C9.49723 9.42343 9.9999 9.37392 10.4567 9.1847C10.9135 8.99548 11.304 8.67505 11.5787 8.26393C11.8534 7.85281 12 7.36946 12 6.875C12 6.21196 11.7366 5.57608 11.2678 5.10724C10.7989 4.63839 10.163 4.375 9.5 4.375Z" fill="#414141"/>
<path d="M9.49999 19.3752C8.11402 19.3743 6.74549 19.0661 5.49293 18.4727C4.24038 17.8794 3.13495 17.0158 2.25624 15.9439L1.93124 15.544L2.25624 15.1502C3.13569 14.0798 4.24144 13.2176 5.49396 12.6256C6.74648 12.0336 8.11463 11.7266 9.49999 11.7266C10.8854 11.7266 12.2535 12.0336 13.506 12.6256C14.7585 13.2176 15.8643 14.0798 16.7437 15.1502L17.0687 15.544L16.7437 15.9439C15.865 17.0158 14.7596 17.8794 13.5071 18.4727C12.2545 19.0661 10.886 19.3743 9.49999 19.3752ZM3.56874 15.5502C4.32889 16.364 5.2482 17.0128 6.2696 17.4564C7.291 17.9 8.39268 18.1289 9.50624 18.1289C10.6198 18.1289 11.7215 17.9 12.7429 17.4564C13.7643 17.0128 14.6836 16.364 15.4437 15.5502C14.6836 14.7364 13.7643 14.0876 12.7429 13.644C11.7215 13.2004 10.6198 12.9715 9.50624 12.9715C8.39268 12.9715 7.291 13.2004 6.2696 13.644C5.2482 14.0876 4.32889 14.7364 3.56874 15.5502Z" fill="#414141"/>
<path d="M9.50001 19.375C7.37047 19.3764 5.3039 18.6528 3.64043 17.3232C1.97696 15.9936 0.815724 14.1373 0.347837 12.0598C-0.120051 9.98232 0.133298 7.80743 1.06618 5.8931C1.99907 3.97877 3.5559 2.43909 5.48045 1.52747C7.40499 0.615841 9.58255 0.386598 11.6547 0.877468C13.7269 1.36834 15.5703 2.55007 16.8813 4.22816C18.1924 5.90626 18.8931 7.98071 18.8681 10.1101C18.8431 12.2395 18.0939 14.2969 16.7438 15.9438C15.865 17.0156 14.7596 17.8792 13.5071 18.4726C12.2545 19.0659 10.886 19.3741 9.50001 19.375ZM9.50001 1.87501C7.89303 1.87501 6.32215 2.35153 4.986 3.24432C3.64985 4.1371 2.60844 5.40606 1.99348 6.89071C1.37852 8.37536 1.21762 10.009 1.53112 11.5851C1.84463 13.1612 2.61846 14.609 3.75476 15.7453C4.89106 16.8816 6.3388 17.6554 7.9149 17.9689C9.49099 18.2824 11.1247 18.1215 12.6093 17.5065C14.094 16.8916 15.3629 15.8502 16.2557 14.514C17.1485 13.1779 17.625 11.607 17.625 10C17.625 7.84513 16.769 5.7785 15.2452 4.25477C13.7215 2.73103 11.6549 1.87501 9.50001 1.87501Z" fill="#414141"/>
<path d="M2.73749 15.5501C2.73749 15.5501 9.03124 22.5813 15.4375 16.2501L16.2625 15.5501C16.2625 15.5501 10.9125 10.0001 5.48124 13.3313L2.73749 15.5501Z" fill="#414141"/>
<path d="M9.5 10C11.2259 10 12.625 8.60089 12.625 6.875C12.625 5.14911 11.2259 3.75 9.5 3.75C7.77411 3.75 6.375 5.14911 6.375 6.875C6.375 8.60089 7.77411 10 9.5 10Z" fill="#414141"/>
</svg>
