<svg width="18" height="18" viewBox="0 0 18 18" fill="none" xmlns="http://www.w3.org/2000/svg">
<path fill-rule="evenodd" clip-rule="evenodd" d="M8.4375 11.2499C8.4375 10.8021 8.25975 10.373 7.94306 10.0568C7.62694 9.74014 7.19775 9.56239 6.75 9.56239C5.63288 9.56239 3.92963 9.56239 2.8125 9.56239C2.36475 9.56239 1.93556 9.74014 1.61944 10.0568C1.30275 10.373 1.125 10.8021 1.125 11.2499V15.1874C1.125 15.6351 1.30275 16.0643 1.61944 16.3805C1.93556 16.6971 2.36475 16.8749 2.8125 16.8749H6.75C7.19775 16.8749 7.62694 16.6971 7.94306 16.3805C8.25975 16.0643 8.4375 15.6351 8.4375 15.1874V11.2499ZM16.875 11.2499C16.875 10.8021 16.6973 10.373 16.3806 10.0568C16.0644 9.74014 15.6353 9.56239 15.1875 9.56239C14.0704 9.56239 12.3671 9.56239 11.25 9.56239C10.8023 9.56239 10.3731 9.74014 10.0569 10.0568C9.74025 10.373 9.5625 10.8021 9.5625 11.2499V15.1874C9.5625 15.6351 9.74025 16.0643 10.0569 16.3805C10.3731 16.6971 10.8023 16.8749 11.25 16.8749H15.1875C15.6353 16.8749 16.0644 16.6971 16.3806 16.3805C16.6973 16.0643 16.875 15.6351 16.875 15.1874V11.2499ZM7.3125 11.2499V15.1874C7.3125 15.3365 7.25344 15.4799 7.14769 15.5851C7.0425 15.6908 6.89906 15.7499 6.75 15.7499H2.8125C2.66344 15.7499 2.52 15.6908 2.41481 15.5851C2.30906 15.4799 2.25 15.3365 2.25 15.1874V11.2499C2.25 11.1008 2.30906 10.9574 2.41481 10.8522C2.52 10.7465 2.66344 10.6874 2.8125 10.6874H6.75C6.89906 10.6874 7.0425 10.7465 7.14769 10.8522C7.25344 10.9574 7.3125 11.1008 7.3125 11.2499ZM15.75 11.2499V15.1874C15.75 15.3365 15.6909 15.4799 15.5852 15.5851C15.48 15.6908 15.3366 15.7499 15.1875 15.7499H11.25C11.1009 15.7499 10.9575 15.6908 10.8523 15.5851C10.7466 15.4799 10.6875 15.3365 10.6875 15.1874V11.2499C10.6875 11.1008 10.7466 10.9574 10.8523 10.8522C10.9575 10.7465 11.1009 10.6874 11.25 10.6874H15.1875C15.3366 10.6874 15.48 10.7465 15.5852 10.8522C15.6909 10.9574 15.75 11.1008 15.75 11.2499ZM14.4118 8.32096L16.7586 5.97421C17.4173 5.31552 17.4173 4.24677 16.7586 3.58808L14.4118 1.24133C13.7531 0.582643 12.6844 0.582643 12.0257 1.24133L9.67894 3.58808C9.02025 4.24677 9.02025 5.31552 9.67894 5.97421L12.0257 8.32096C12.6844 8.97964 13.7531 8.97964 14.4118 8.32096ZM8.4375 2.81239C8.4375 2.36464 8.25975 1.93545 7.94306 1.61933C7.62694 1.30264 7.19775 1.12489 6.75 1.12489C5.63288 1.12489 3.92963 1.12489 2.8125 1.12489C2.36475 1.12489 1.93556 1.30264 1.61944 1.61933C1.30275 1.93545 1.125 2.36464 1.125 2.81239V6.74989C1.125 7.19764 1.30275 7.62683 1.61944 7.94296C1.93556 8.25964 2.36475 8.43739 2.8125 8.43739H6.75C7.19775 8.43739 7.62694 8.25964 7.94306 7.94296C8.25975 7.62683 8.4375 7.19764 8.4375 6.74989V2.81239ZM15.9632 5.17883L13.6164 7.52558C13.3971 7.74495 13.0404 7.74495 12.8211 7.52558L10.4743 5.17883C10.2549 4.95946 10.2549 4.60283 10.4743 4.38345L12.8211 2.03671C13.0404 1.81733 13.3971 1.81733 13.6164 2.03671L15.9632 4.38345C16.1826 4.60283 16.1826 4.95946 15.9632 5.17883ZM7.3125 2.81239V6.74989C7.3125 6.89896 7.25344 7.04239 7.14769 7.14758C7.0425 7.25333 6.89906 7.31239 6.75 7.31239H2.8125C2.66344 7.31239 2.52 7.25333 2.41481 7.14758C2.30906 7.04239 2.25 6.89896 2.25 6.74989V2.81239C2.25 2.66333 2.30906 2.51989 2.41481 2.4147C2.52 2.30895 2.66344 2.24989 2.8125 2.24989H6.75C6.89906 2.24989 7.0425 2.30895 7.14769 2.4147C7.25344 2.51989 7.3125 2.66333 7.3125 2.81239Z" fill="#414141"/>
</svg>
