<svg width="95" height="95" viewBox="0 0 95 95" fill="none" xmlns="http://www.w3.org/2000/svg">
<path d="M11.0417 63.125V73.5417H0.625V63.125H11.0417ZM0.625 94.375H11.0417V83.9583H0.625V94.375ZM11.0417 73.5417V83.9583H21.4583V73.5417H11.0417ZM31.875 42.2917H21.4583V52.7083H11.0417V63.125H31.875V42.2917ZM0.625 42.2917V52.7083H11.0417V42.2917H0.625ZM31.875 83.9583H21.4583V94.375H47.5V83.9583H42.2917V73.5417H31.875V83.9583ZM52.7083 5.83333H42.2917V16.25H52.7083V5.83333ZM42.2917 42.2917H52.7083V26.6667H42.2917V42.2917ZM5.83333 31.875C4.452 31.875 3.12724 31.3263 2.15049 30.3495C1.17373 29.3728 0.625 28.048 0.625 26.6667V5.83333C0.625 4.452 1.17373 3.12724 2.15049 2.15049C3.12724 1.17373 4.452 0.625 5.83333 0.625H26.6667C28.048 0.625 29.3728 1.17373 30.3495 2.15049C31.3263 3.12724 31.875 4.452 31.875 5.83333V26.6667C31.875 28.048 31.3263 29.3728 30.3495 30.3495C29.3728 31.3263 28.048 31.875 26.6667 31.875H5.83333ZM11.0417 21.4583H21.4583V11.0417H11.0417V21.4583ZM94.375 5.83333V47.5H83.9583V31.875H68.3333C66.952 31.875 65.6272 31.3263 64.6505 30.3495C63.6737 29.3728 63.125 28.048 63.125 26.6667V5.83333C63.125 4.452 63.6737 3.12724 64.6505 2.15049C65.6272 1.17373 66.952 0.625 68.3333 0.625H89.1667C90.548 0.625 91.8728 1.17373 92.8495 2.15049C93.8263 3.12724 94.375 4.452 94.375 5.83333ZM83.9583 11.0417H73.5417V21.4583H83.9583V11.0417ZM94.375 68.3333V89.1667C94.375 90.548 93.8263 91.8728 92.8495 92.8495C91.8728 93.8263 90.548 94.375 89.1667 94.375H68.3333C66.952 94.375 65.6272 93.8263 64.6505 92.8495C63.6737 91.8728 63.125 90.548 63.125 89.1667V73.5417H42.2917V52.7083H52.7083V63.125H57.9167V42.2917H68.3333V63.125H89.1667C90.548 63.125 91.8728 63.6737 92.8495 64.6505C93.8263 65.6272 94.375 66.952 94.375 68.3333ZM83.9583 73.5417H73.5417V83.9583H83.9583V73.5417Z" fill="black"/>
</svg>
