<svg width="16" height="16" viewBox="0 0 16 16" fill="none" xmlns="http://www.w3.org/2000/svg">
<path d="M8.31677 1.53009C8.28755 1.47107 8.24242 1.42138 8.18647 1.38664C8.13051 1.3519 8.06596 1.3335 8.0001 1.3335C7.93424 1.3335 7.86969 1.3519 7.81374 1.38664C7.75778 1.42138 7.71265 1.47107 7.68344 1.53009L6.14344 4.64943C6.04198 4.85474 5.89223 5.03236 5.70702 5.16706C5.52181 5.30176 5.30668 5.3895 5.0801 5.42276L1.6361 5.92676C1.57084 5.93621 1.50954 5.96374 1.45911 6.00622C1.40868 6.04871 1.37115 6.10446 1.35076 6.16716C1.33036 6.22987 1.32792 6.29703 1.34371 6.36105C1.3595 6.42507 1.39289 6.48339 1.4401 6.52942L3.93077 8.95476C4.09502 9.11483 4.21792 9.31241 4.28888 9.53051C4.35984 9.74861 4.37673 9.98068 4.3381 10.2068L3.7501 13.6334C3.73858 13.6987 3.74563 13.7658 3.77044 13.8272C3.79524 13.8886 3.83681 13.9418 3.89041 13.9808C3.944 14.0197 4.00745 14.0428 4.07352 14.0474C4.1396 14.052 4.20564 14.0379 4.2641 14.0068L7.34277 12.3881C7.54562 12.2816 7.77132 12.2259 8.00044 12.2259C8.22956 12.2259 8.45525 12.2816 8.6581 12.3881L11.7361 14.0068C11.7945 14.0377 11.8605 14.0516 11.9265 14.0469C11.9924 14.0422 12.0558 14.0191 12.1092 13.9802C12.1627 13.9413 12.2042 13.8882 12.229 13.8269C12.2538 13.7656 12.2609 13.6986 12.2494 13.6334L11.6621 10.2074C11.6233 9.98125 11.6401 9.74902 11.7111 9.53079C11.782 9.31255 11.905 9.11486 12.0694 8.95476L14.5601 6.53009C14.6077 6.48411 14.6414 6.42569 14.6575 6.36147C14.6735 6.29726 14.6711 6.22984 14.6507 6.16689C14.6303 6.10393 14.5926 6.04799 14.5419 6.00541C14.4912 5.96284 14.4296 5.93536 14.3641 5.92609L10.9208 5.42276C10.6939 5.38976 10.4785 5.30213 10.293 5.16742C10.1076 5.0327 9.95763 4.85494 9.8561 4.64943L8.31677 1.53009Z" fill="#FFCD05" stroke="#FFCD05" stroke-width="1.5" stroke-linecap="round" stroke-linejoin="round"/>
</svg>
