<svg width="20" height="20" viewBox="0 0 20 20" fill="none" xmlns="http://www.w3.org/2000/svg">
<path d="M9.99821 7.49995V10.8333M9.99821 14.1666H10.0065M8.84429 3.24305L1.9902 15.0819C1.61002 15.7385 1.41994 16.0669 1.44803 16.3364C1.47254 16.5714 1.59568 16.785 1.78682 16.924C2.00594 17.0833 2.38533 17.0833 3.1441 17.0833H16.8522C17.611 17.0833 17.9904 17.0833 18.2095 16.924C18.4006 16.785 18.5238 16.5714 18.5483 16.3364C18.5764 16.0669 18.3863 15.7385 18.0061 15.0819L11.152 3.24305C10.7733 2.58874 10.5839 2.26159 10.3368 2.15172C10.1212 2.05587 9.87513 2.05587 9.65963 2.15172C9.41246 2.26159 9.22304 2.58875 8.84429 3.24305Z" stroke="#292929" stroke-width="1.8" stroke-linecap="round" stroke-linejoin="round"/>
</svg>
