<svg width="21" height="21" viewBox="0 0 21 21" fill="none" xmlns="http://www.w3.org/2000/svg">
<path d="M1.08594 4.64062H19.9141M3.42969 6.98438H6.94531M12.8828 14.9643L13.5525 15.6339L15.2266 13.9598M17.5665 14.4062H18.7422C19.3894 14.4062 19.9141 13.8816 19.9141 13.2344V3.07812C19.9141 2.4309 19.3894 1.90625 18.7422 1.90625H2.25781C1.61059 1.90625 1.08594 2.4309 1.08594 3.07812V13.2344C1.08594 13.8816 1.61059 14.4062 2.25781 14.4062H10.5429M3.42969 12.0625H7.72656V9.32812H3.42969V12.0625ZM17.5703 12.0625H17.1797C15.9502 12.0625 14.7924 11.4836 14.0547 10.5C13.317 11.4836 12.1592 12.0625 10.9297 12.0625H10.5391V14.2161C10.5391 16.4291 11.9552 18.3939 14.0547 19.0938C16.1542 18.3939 17.5703 16.4291 17.5703 14.2161V12.0625Z" stroke="#292929" stroke-miterlimit="10" stroke-linecap="round" stroke-linejoin="round"/>
</svg>
