<svg width="48" height="48" viewBox="0 0 48 48" fill="none" xmlns="http://www.w3.org/2000/svg">
<rect width="48" height="48" rx="8" fill="#FFFDF3"/>
<path d="M20.25 17.9999C20.25 17.2904 20.4512 16.5954 20.8305 15.9956C21.2097 15.3959 21.7513 14.9161 22.3923 14.6119C23.0334 14.3077 23.7476 14.1916 24.4519 14.2771C25.1563 14.3626 25.822 14.6462 26.3716 15.095C26.9213 15.5437 27.3323 16.1392 27.557 16.8123C27.7817 17.4853 27.8108 18.2083 27.641 18.8972C27.4712 19.5862 27.1094 20.2128 26.5977 20.7043C26.0859 21.1958 25.4452 21.5321 24.75 21.674V28.4999C24.75 28.6988 24.671 28.8896 24.5303 29.0303C24.3897 29.1709 24.1989 29.2499 24 29.2499C23.8011 29.2499 23.6103 29.1709 23.4697 29.0303C23.329 28.8896 23.25 28.6988 23.25 28.4999V21.674C22.4035 21.5003 21.6429 21.04 21.0964 20.3707C20.5499 19.7014 20.2509 18.864 20.25 17.9999ZM32.4375 25.7427C31.2881 25.0921 29.7075 24.5924 27.8653 24.2971C27.7679 24.2817 27.6683 24.2857 27.5724 24.3088C27.4765 24.3318 27.3861 24.3736 27.3063 24.4316C27.2265 24.4896 27.1589 24.5628 27.1074 24.6469C27.0559 24.7311 27.0215 24.8245 27.0061 24.922C26.9907 25.0194 26.9947 25.1189 27.0177 25.2148C27.0408 25.3108 27.0825 25.4012 27.1406 25.481C27.1986 25.5608 27.2718 25.6283 27.3559 25.6799C27.44 25.7314 27.5335 25.7658 27.6309 25.7812C29.2753 26.0456 30.7247 26.4965 31.7016 27.0515C32.5312 27.5156 33 28.0443 33 28.4999C33 29.7524 29.5763 31.4999 24 31.4999C18.4237 31.4999 15 29.7524 15 28.4999C15 28.0443 15.4687 27.5156 16.2984 27.0477C17.2791 26.4927 18.7247 26.0418 20.3691 25.7774C20.4686 25.7644 20.5645 25.7316 20.6511 25.6809C20.7377 25.6301 20.8132 25.5625 20.8732 25.4821C20.9332 25.4016 20.9764 25.3099 21.0003 25.2125C21.0242 25.115 21.0283 25.0137 21.0124 24.9146C20.9965 24.8155 20.9608 24.7207 20.9075 24.6356C20.8542 24.5506 20.7844 24.4771 20.7022 24.4195C20.62 24.3619 20.5271 24.3214 20.429 24.3004C20.3309 24.2794 20.2295 24.2783 20.1309 24.2971C18.2888 24.5924 16.7081 25.0921 15.5587 25.7427C13.8572 26.7065 13.5 27.7743 13.5 28.4999C13.5 31.4231 18.9103 32.9999 24 32.9999C29.0897 32.9999 34.5 31.4231 34.5 28.4999C34.5 27.7743 34.1428 26.7065 32.4375 25.7427Z" fill="#FFCD05"/>
</svg>
