<svg width="67" height="65" viewBox="0 0 67 65" fill="none" xmlns="http://www.w3.org/2000/svg">
<path fill-rule="evenodd" clip-rule="evenodd" d="M25.3552 0.657227C18.2576 0.657227 12.5039 6.41099 12.5039 13.5086C12.5039 20.6062 18.2576 26.3598 25.3552 26.3598C32.453 26.3598 38.2066 20.6062 38.2066 13.5086C38.2066 6.41099 32.453 0.657227 25.3552 0.657227Z" fill="black"/>
<path fill-rule="evenodd" clip-rule="evenodd" d="M36.8973 24.6133C34.4816 24.6133 32.3159 26.1019 31.4509 28.3572L27.8643 37.7059L27.8546 37.7319C27.1406 39.6573 26.8644 41.6762 27.3476 43.5799C27.7146 45.0272 28.487 46.2696 29.6003 47.2486C29.7513 47.3813 29.8429 47.5702 29.8429 47.7712V57.2942C29.8429 61.4362 33.201 64.7942 37.343 64.7942H56.192C60.334 64.7942 63.692 61.4362 63.692 57.2942V47.7642C63.692 47.5636 63.7836 47.3746 63.934 47.2419C65.043 46.2642 65.813 45.0246 66.1796 43.5806C66.6633 41.6762 66.387 39.6569 65.6713 37.7309L62.0756 28.3576C61.2103 26.1022 59.0446 24.6135 56.6293 24.6134L36.8973 24.6133ZM34.843 49.9446C34.843 49.5743 35.1456 49.2779 35.5146 49.2496C37.3613 49.1086 39.1353 48.3249 40.4886 46.9926C40.5616 46.9209 40.6813 46.9282 40.7446 47.0082C42.1213 48.7436 44.196 49.8619 46.763 49.8619C49.3303 49.8619 51.405 48.7432 52.7816 47.0079C52.845 46.9279 52.9646 46.9209 53.0373 46.9923C54.3926 48.3269 56.17 49.1109 58.0196 49.2506C58.389 49.2782 58.692 49.5749 58.692 49.9456V57.2942C58.692 58.6749 57.5726 59.7942 56.192 59.7942H37.343C35.9623 59.7942 34.843 58.6749 34.843 57.2942V49.9446Z" fill="black"/>
<path fill-rule="evenodd" clip-rule="evenodd" d="M22.5008 44.8097C23.34 48.1177 24.8429 51.3524 24.8429 54.7651V57.2944C24.8429 57.7331 24.5259 58.1187 24.0879 58.1407C23.8937 58.1504 23.6983 58.1551 23.5018 58.1551H14.2686C6.76148 58.1551 0.675781 52.0694 0.675781 44.5624C0.675781 37.0554 6.76148 30.9697 14.2686 30.9697H23.5018C24.296 30.9697 24.7807 31.7844 24.4962 32.5257L23.196 35.9151L23.1762 35.9674L23.1664 35.9937C22.2198 38.5464 21.6955 41.6354 22.5008 44.8097Z" fill="black"/>
</svg>
