<svg width="29" height="34" viewBox="0 0 29 34" fill="none" xmlns="http://www.w3.org/2000/svg">
<path fill-rule="evenodd" clip-rule="evenodd" d="M14.2975 33.5228C14.482 33.6192 14.6884 33.6683 14.8948 33.6666C15.1012 33.665 15.3059 33.6143 15.4921 33.5163L21.4386 30.3375C23.1249 29.4386 24.4454 28.4335 25.4756 27.2633C27.7156 24.7137 28.9388 21.4597 28.917 18.1044L28.8465 7.03668C28.8398 5.76189 28.0025 4.62439 26.7642 4.2109L15.7019 0.499314C15.0358 0.273775 14.3059 0.278678 13.6515 0.510755L2.63106 4.35472C1.39948 4.78456 0.577314 5.93023 0.584025 7.20665L0.654497 18.2662C0.676309 21.6264 1.94144 24.8657 4.21835 27.3891C5.25865 28.543 6.5909 29.5334 8.29564 30.4176L14.2975 33.5228ZM12.7226 20.5149C12.9709 20.7535 13.2931 20.8712 13.6152 20.868C13.9374 20.8663 14.2579 20.7454 14.5028 20.5035L21.0013 14.0969C21.4896 13.6147 21.4846 12.8401 20.9913 12.3645C20.4963 11.8889 19.6993 11.8921 19.211 12.3743L13.5968 17.9082L11.298 15.6985C10.8031 15.2229 10.0077 15.2278 9.5178 15.71C9.02953 16.1921 9.03456 16.9668 9.52954 17.4424L12.7226 20.5149Z" fill="#28A745"/>
</svg>
