<svg width="29" height="28" viewBox="0 0 29 28" fill="none" xmlns="http://www.w3.org/2000/svg">
<path d="M12.9755 0.613315C13.8289 -0.204438 15.1711 -0.204438 16.0245 0.613315L16.1497 0.733276C16.7536 1.31204 17.6307 1.49934 18.4168 1.2174L18.5797 1.15896C19.6904 0.760599 20.9166 1.30908 21.3651 2.40483L21.4309 2.56557C21.7483 3.34109 22.4737 3.8706 23.306 3.93424L23.4785 3.94742C24.6544 4.03733 25.5526 5.03947 25.5186 6.22374L25.5137 6.39747C25.4897 7.23564 25.938 8.01581 26.6726 8.41401L26.8248 8.49655C27.8626 9.05918 28.2774 10.3417 27.767 11.4097L27.6921 11.5664C27.3308 12.3223 27.4246 13.2182 27.9344 13.8821L28.04 14.0198C28.7604 14.9578 28.6201 16.2989 27.7213 17.0661L27.5895 17.1786C26.9534 17.7215 26.6763 18.5783 26.8733 19.3931L26.9141 19.562C27.1924 20.7133 26.5212 21.8812 25.3896 22.2147L25.2236 22.2637C24.4227 22.4998 23.8227 23.1692 23.6727 23.9941L23.6416 24.1651C23.4297 25.3305 22.3438 26.1232 21.175 25.9655L21.0035 25.9424C20.1763 25.8308 19.3571 26.1972 18.8861 26.8895L18.7885 27.0329C18.123 28.0111 16.8101 28.2914 15.8062 27.6698L15.6589 27.5786C14.9484 27.1386 14.0516 27.1386 13.3411 27.5786L13.1938 27.6698C12.1899 28.2914 10.877 28.0111 10.2115 27.0329L10.1139 26.8895C9.64291 26.1972 8.82372 25.8308 7.99649 25.9424L7.82504 25.9655C6.65622 26.1232 5.57029 25.3305 5.35837 24.1651L5.32728 23.9941C5.1773 23.1692 4.57728 22.4998 3.77639 22.2637L3.61039 22.2147C2.47879 21.8812 1.80765 20.7133 2.08591 19.562L2.12673 19.3931C2.32367 18.5783 2.04657 17.7215 1.4105 17.1786L1.27866 17.0661C0.379936 16.2989 0.239629 14.9578 0.959955 14.0198L1.06562 13.8821C1.57544 13.2182 1.66917 12.3223 1.3079 11.5664L1.23302 11.4097C0.722569 10.3417 1.13736 9.05918 2.1752 8.49655L2.32744 8.41401C3.06198 8.01581 3.51033 7.23564 3.48633 6.39747L3.48136 6.22374C3.44744 5.03946 4.34561 4.03733 5.52151 3.94742L5.69401 3.93424C6.52626 3.8706 7.25171 3.34109 7.56913 2.56557L7.63492 2.40483C8.08341 1.30908 9.30965 0.760599 10.4203 1.15896L10.5832 1.2174C11.3693 1.49934 12.2464 1.31204 12.8503 0.733276L12.9755 0.613315Z" fill="#FFCD05"/>
</svg>
