<svg width="287" height="812" viewBox="0 0 287 812" fill="none" xmlns="http://www.w3.org/2000/svg">
<path opacity="0.5" d="M-180.573 409.982C-180.573 310.616 -181.667 211.25 -180.354 111.883C-178.822 -2.33327 -132.316 -56.4932 -19.8279 -77.5676C1.40048 -81.6078 23.2854 -83.355 44.8421 -83.7917C268.725 -89.033 286.999 5.0919 286.999 148.9V297.14C272.773 297.14 229.441 297.467 171.665 297.467C127.458 297.467 104.15 296.921 89.3779 296.921C89.3779 286.22 89.3779 216.6 89.3779 178.055C89.3779 149.118 89.3779 120.291 89.3779 91.3549C89.3779 71.154 91.1287 48.551 61.4746 48.9878C32.9148 49.4246 33.5714 71.2632 33.5714 91.9008C33.6808 216.6 33.5713 341.19 33.6807 465.889C33.6807 547.238 33.6807 628.479 33.6807 709.828C33.6807 731.885 31.1639 757.436 62.897 757C96.4904 756.563 89.0496 728.718 89.2684 708.299C89.8155 652.283 89.3779 503.234 89.3779 495.699C95.6151 495.699 280.98 495.699 286.999 495.699C286.999 504.762 286.67 666.587 286.999 733.523C287.218 787.792 260.518 829.177 213.903 854.4C110.825 910.417 4.90204 907.032 -99.7078 861.17C-159.563 834.964 -180.135 781.022 -180.463 718.891C-181.01 615.921 -180.573 512.952 -180.682 409.982H-180.573Z" fill="url(#paint0_linear_1704_14768)"/>
<defs>
<linearGradient id="paint0_linear_1704_14768" x1="287" y1="406" x2="-414" y2="406" gradientUnits="userSpaceOnUse">
<stop stop-color="#FFEB9B"/>
<stop offset="1" stop-color="#FFCD05"/>
</linearGradient>
</defs>
</svg>
