<svg width="58" height="812" viewBox="0 0 58 812" fill="none" xmlns="http://www.w3.org/2000/svg">
<path opacity="0.5" d="M208.753 747.854C280.383 747.854 377.767 747.15 443.16 747.15C443.16 775.913 444.769 836.456 444.769 862C306.942 861.095 137.827 861.296 0 862C0.402415 799.346 0 803.167 0 742.323C59.658 635.016 150.302 466.362 211.167 357.446C246.681 293.886 255.433 225.701 252.817 154.9C251.912 129.054 243.26 108.236 212.777 108.337C180.383 108.337 176.459 130.965 176.761 156.509C177.063 191.507 177.264 261.503 177.264 296.099L0.100549 296.099C0.100549 251.044 1.00595 172.097 1.00595 125.936C1.00595 60.1643 48.2898 1.6333 111.469 -16.6702C181.892 -36.9851 253.521 -36.5829 324.447 -18.5811C381.791 -4.09915 415.896 35.525 428.673 91.4413C451.208 190.401 457.144 286.243 402.013 381.08C334.508 497.337 276.157 618.925 208.853 747.754L208.753 747.854Z" fill="url(#paint0_linear_1704_14749)"/>
<defs>
<linearGradient id="paint0_linear_1704_14749" x1="266" y1="429" x2="-74.5" y2="429" gradientUnits="userSpaceOnUse">
<stop stop-color="#FFCD05"/>
<stop offset="1" stop-color="#FFEB9B"/>
</linearGradient>
</defs>
</svg>
