<svg width="31" height="30" viewBox="0 0 31 30" fill="none" xmlns="http://www.w3.org/2000/svg">
<path fill-rule="evenodd" clip-rule="evenodd" d="M15.8414 4.04363C13.7094 3.97263 11.5554 4.5543 9.69578 5.79563C7.60711 7.1913 6.14745 9.2523 5.47511 11.5563C5.28945 11.5336 5.06711 11.5436 4.80311 11.6183C3.81745 11.898 3.07611 12.7056 2.74278 13.417C2.31045 14.344 2.12811 15.57 2.32045 16.8356C2.51145 18.0973 3.04445 19.1373 3.71111 19.783C4.37978 20.429 5.13478 20.639 5.88478 20.4813C7.00145 20.243 7.55511 20.0646 7.39878 19.0243L6.64178 13.9813C6.79445 11.252 8.20745 8.68263 10.5708 7.10263C13.7341 4.98963 17.8814 5.12497 20.8988 7.4413C22.9978 9.05063 24.2164 11.462 24.3571 13.9933L23.8278 17.521C22.6471 20.752 19.7201 22.99 16.3331 23.3076H14.0778C13.4958 23.3076 13.0271 23.7763 13.0271 24.3576V24.9116C13.0271 25.4933 13.4958 25.962 14.0778 25.962H16.9214C17.5031 25.962 17.9698 25.4933 17.9698 24.9116V24.622C20.5238 23.9986 22.7531 22.429 24.2048 20.24L25.1158 20.4816C25.8571 20.674 26.6211 20.429 27.2894 19.7833C27.9561 19.1373 28.4888 18.0976 28.6801 16.836C28.8731 15.5703 28.6854 14.3463 28.2581 13.4173C27.8291 12.4883 27.1901 11.8983 26.4524 11.6866C26.1434 11.5976 25.8081 11.565 25.5204 11.5563C24.9124 9.47297 23.6608 7.5783 21.8568 6.19497C20.0831 4.83397 17.9734 4.11363 15.8414 4.04363Z" fill="#292929"/>
<path fill-rule="evenodd" clip-rule="evenodd" d="M19.1705 13.1162C19.9222 13.1162 20.5315 13.7255 20.5332 14.4792C20.5315 15.2309 19.9222 15.8419 19.1705 15.8419C18.4169 15.8419 17.8059 15.2309 17.8059 14.4792C17.8059 13.7259 18.4172 13.1162 19.1705 13.1162ZM15.5005 13.1162C16.2539 13.1162 16.8632 13.7255 16.8632 14.4792C16.8632 15.2309 16.2539 15.8419 15.5005 15.8419C14.7465 15.8419 14.1372 15.2309 14.1372 14.4792C14.1372 13.7259 14.7465 13.1162 15.5005 13.1162ZM11.8319 13.1162C12.5835 13.1162 13.1945 13.7255 13.1945 14.4792C13.1945 15.2309 12.5835 15.8419 11.8319 15.8419C11.0785 15.8419 10.4689 15.2309 10.4689 14.4792C10.4689 13.7259 11.0785 13.1162 11.8319 13.1162ZM15.5005 7.26221C11.5039 7.26221 8.2832 10.3769 8.2832 14.4792C8.2832 16.4495 9.0282 18.1909 10.2419 19.4685L9.8112 21.3992C9.6692 22.0345 10.1099 22.4619 10.6809 22.1439L12.5662 21.0922C13.4622 21.4812 14.4532 21.6962 15.5005 21.6962C19.4985 21.6962 22.7172 18.5835 22.7172 14.4792C22.7172 10.3769 19.4985 7.26221 15.5005 7.26221Z" fill="#292929"/>
</svg>
