<svg width="28" height="28" viewBox="0 0 28 28" fill="none" xmlns="http://www.w3.org/2000/svg">
<path d="M13.8346 3.00033H7.56797C5.32776 3.00033 4.20765 3.00033 3.35201 3.4363C2.59936 3.81979 1.98744 4.43171 1.60394 5.18437C1.16797 6.04001 1.16797 7.16011 1.16797 9.40033V20.6003C1.16797 22.8406 1.16797 23.9606 1.60394 24.8163C1.98744 25.569 2.59936 26.1809 3.35201 26.5643C4.20765 27.0003 5.32776 27.0003 7.56797 27.0003H19.8346C21.0746 27.0003 21.6946 27.0003 22.2033 26.8641C23.5836 26.4942 24.6618 25.4159 25.0317 24.0357C25.168 23.527 25.168 22.907 25.168 21.667M22.5013 9.66699V1.66699M18.5013 5.66699H26.5013M11.168 10.3337C11.168 11.8064 9.97406 13.0003 8.5013 13.0003C7.02854 13.0003 5.83464 11.8064 5.83464 10.3337C5.83464 8.8609 7.02854 7.66699 8.5013 7.66699C9.97406 7.66699 11.168 8.8609 11.168 10.3337ZM17.1546 14.8911L5.87617 25.1443C5.24178 25.7211 4.9246 26.0094 4.89654 26.2593C4.87222 26.4758 4.95524 26.6905 5.11889 26.8343C5.30768 27.0003 5.73634 27.0003 6.59369 27.0003H19.1093C21.0281 27.0003 21.9876 27.0003 22.7412 26.6779C23.6872 26.2733 24.4409 25.5195 24.8456 24.5735C25.168 23.8199 25.168 22.8605 25.168 20.9417C25.168 20.2959 25.168 19.9731 25.0974 19.6726C25.0086 19.2947 24.8386 18.9409 24.599 18.6355C24.4084 18.3926 24.1562 18.1909 23.6521 17.7877L19.9224 14.8039C19.4178 14.4002 19.1656 14.1983 18.8877 14.1271C18.6428 14.0643 18.3852 14.0725 18.1446 14.1506C17.8718 14.2391 17.6328 14.4565 17.1546 14.8911Z" stroke="#888888" stroke-width="1.8" stroke-linecap="round" stroke-linejoin="round"/>
</svg>
