<svg width="26" height="27" viewBox="0 0 26 27" fill="none" xmlns="http://www.w3.org/2000/svg">
<path fill-rule="evenodd" clip-rule="evenodd" d="M12.9987 11.3334C14.7937 11.3334 16.2487 9.87834 16.2487 8.08342C16.2487 6.28849 14.7937 4.83341 12.9987 4.83341C11.2037 4.83341 9.7487 6.28849 9.7487 8.08342C9.7487 9.87834 11.2037 11.3334 12.9987 11.3334ZM12.9987 13.5001C15.9902 13.5001 18.4154 11.075 18.4154 8.08342C18.4154 5.09188 15.9902 2.66675 12.9987 2.66675C10.0072 2.66675 7.58203 5.09188 7.58203 8.08342C7.58203 11.075 10.0072 13.5001 12.9987 13.5001Z" fill="#A0A0A0"/>
<path fill-rule="evenodd" clip-rule="evenodd" d="M9.75 17.8334C7.35677 17.8334 5.41667 19.7736 5.41667 22.1667V23.2501C5.41667 23.8484 4.93164 24.3334 4.33333 24.3334C3.73503 24.3334 3.25 23.8484 3.25 23.2501V22.1667C3.25 18.5769 6.16015 15.6667 9.75 15.6667H16.25C19.8398 15.6667 22.75 18.5769 22.75 22.1667V23.2501C22.75 23.8484 22.265 24.3334 21.6667 24.3334C21.0683 24.3334 20.5833 23.8484 20.5833 23.2501V22.1667C20.5833 19.7736 18.6432 17.8334 16.25 17.8334H9.75Z" fill="#A0A0A0"/>
</svg>
